<svg width="600" height="600" viewBox="0 0 600 600" fill="none" xmlns="http://www.w3.org/2000/svg">
<mask id="mask0_9_130" style="mask-type:alpha" maskUnits="userSpaceOnUse" x="41" y="426" width="523" height="113">
<rect x="41.0002" y="426" width="522" height="113" fill="#D9D9D9"/>
</mask>
<g mask="url(#mask0_9_130)">
<path d="M167.263 494.391L167.257 468.25C179.571 472.425 184.045 471.651 194.066 468.234L490.496 467.76C522.356 467.743 536.039 469.191 558.494 480.801C536.572 492.169 523.604 493.893 490.511 493.916L194.072 494.375C184.405 491.082 180.265 489.953 167.263 494.391Z" fill="white" stroke="#120002" stroke-width="5.16763" stroke-linejoin="round"/>
<path fill-rule="evenodd" clip-rule="evenodd" d="M558.236 480.463L206.537 480.68L558.236 480.463Z" fill="white"/>
<path d="M558.236 480.463L206.537 480.68" stroke="#120002" stroke-width="5.16763"/>
<path d="M51.6112 496.193C47.2115 492.206 46.8072 481.789 46.771 480.794C46.7145 479.77 47.2968 469.777 51.8976 465.857C56.3941 463.419 74.516 470.888 78.266 472.677C74.9177 480.548 74.7323 481.002 77.8992 489.139C74.7842 490.751 57.2417 498.916 51.6112 496.193Z" fill="white" stroke="#120002" stroke-width="5.16763" stroke-linejoin="round"/>
<path fill-rule="evenodd" clip-rule="evenodd" d="M160.695 491.715C164.095 483.353 162.585 474.569 158.888 470.942L78.0753 472.254C74.0952 478.11 74.6651 484.464 77.8328 489.65L160.695 491.715Z" fill="white" stroke="#120002" stroke-width="4.9568"/>
<path fill-rule="evenodd" clip-rule="evenodd" d="M202.539 494.46C203.078 489.618 204.155 483.514 206.908 480.654C204.071 477.518 203.204 472.367 202.536 468.164" fill="white"/>
<path d="M202.539 494.46C203.078 489.618 204.155 483.514 206.908 480.654C204.071 477.518 203.204 472.367 202.536 468.164" stroke="#120002" stroke-width="5.16763"/>
<path d="M160.682 490.388C164.157 481.821 164.048 478.208 160.545 469.804C160.551 454.264 173.588 426.976 176.324 428.489L187.851 439.848C173.303 449.305 164.436 468.436 177.556 480.06C164.806 491.18 173.182 510.664 187.848 523.367L175.47 533.579C173.448 534.608 160.696 505.675 160.682 490.388ZM175.14 533.698C162.018 515.913 158.033 504.11 158.016 492.275L175.14 533.698ZM174.665 429.29C161.58 447.086 157.6 458.909 157.592 470.74L174.665 429.29Z" fill="white"/>
<path d="M175.14 533.698C162.018 515.913 158.033 504.11 158.016 492.275M174.665 429.29C161.58 447.086 157.6 458.909 157.592 470.74M160.682 490.388C164.157 481.821 164.048 478.208 160.545 469.804C160.551 454.264 173.588 426.976 176.324 428.489L187.851 439.848C173.303 449.305 164.436 468.436 177.556 480.06C164.806 491.18 173.182 510.664 187.848 523.367L175.47 533.579C173.448 534.608 160.696 505.675 160.682 490.388Z" stroke="#120002" stroke-width="5.16763" stroke-linejoin="round"/>
<path d="M160.264 493.606C160.215 493.943 160.285 494.264 160.34 494.595C160.35 494.892 160.443 495.153 160.517 495.449C160.567 495.74 160.566 496.022 160.576 496.319C160.592 496.656 160.582 496.988 160.573 497.32C160.584 497.681 160.585 498.028 160.521 498.376C160.453 498.748 160.435 499.13 160.431 499.501C160.417 499.858 160.339 500.216 160.3 500.568C160.241 500.891 160.311 501.212 160.355 501.528C160.45 501.853 160.598 502.163 160.653 502.494C160.704 502.85 160.877 503.164 161.065 503.467C161.189 503.772 161.338 504.082 161.447 504.397C161.492 504.713 161.59 505.014 161.64 505.305C161.778 505.6 161.863 505.91 161.972 506.226C162.048 506.368 162.056 506.536 162.103 506.699C162.14 506.847 162.207 506.974 162.244 507.122C162.274 507.449 162.368 507.774 162.423 508.105C162.424 508.451 162.562 508.746 162.671 509.061C162.801 509.406 162.876 509.766 162.976 510.131C163.071 510.456 163.18 510.771 163.22 511.112C163.374 511.461 163.533 511.786 163.643 512.165C163.717 512.461 163.821 512.737 163.865 513.053C163.988 513.293 163.978 513.561 164.13 513.781C164.302 514.031 164.287 514.323 164.381 514.584C164.475 514.909 164.589 515.2 164.698 515.515C165.744 517.156 160.773 508.856 164.942 515.932C165.293 516.535 164.244 514.7 163.882 514.083C163.846 513.999 164.004 514.259 164.05 514.357C164.085 514.376 164.116 514.42 164.146 514.464C164.544 515.166 164.956 515.857 165.353 516.559C165.384 516.603 165.375 516.652 165.405 516.696C165.457 516.834 165.508 516.972 165.59 517.09C165.595 517.129 165.662 517.257 165.646 517.203C165.284 516.585 164.913 515.952 164.566 515.324L164.637 515.427C164.851 515.8 165.633 516.995 165.962 517.787C163.135 512.842 166.064 517.933 166.114 518.007C166.171 518.12 166.259 518.406 166.286 518.539C166.323 518.687 166.39 518.814 166.456 518.942L165.006 517.124C164.955 516.986 164.917 516.838 164.876 516.715C164.824 516.578 164.772 516.44 164.706 516.312C164.7 516.273 164.619 516.155 164.65 516.199C165.75 518.107 166.519 519.441 164.512 515.969C164.43 515.787 164.379 515.713 164.379 515.713C166.736 519.725 164.803 516.484 164.125 515.282C164.073 515.144 164.021 515.006 163.955 514.879C163.949 514.839 163.868 514.722 163.899 514.766C165.064 516.737 165.374 517.217 164.902 516.502C164.377 515.867 163.579 514.271 163.492 514.114C163.141 513.511 164.903 516.566 164.566 515.953C163.257 513.647 163.634 514.602 163.262 513.687C163.163 513.386 163.054 513.071 162.97 512.761C162.906 512.48 162.827 512.208 162.68 511.963C162.597 511.717 162.528 511.461 162.474 511.194C162.4 510.898 162.296 510.623 162.222 510.327C162.108 509.972 161.899 509.639 161.839 509.269C161.759 508.933 161.65 508.618 161.566 508.307C161.466 507.943 161.39 507.582 161.251 507.223C161.142 506.908 161.057 506.598 161.027 506.271C160.962 505.926 160.893 505.605 160.823 505.284C160.724 504.984 160.65 504.688 160.551 504.387C160.452 504.087 160.303 503.777 160.234 503.457C160.184 503.165 160.11 502.869 160.021 502.584C159.888 502.264 159.764 501.959 159.611 501.674C159.452 501.35 159.308 501.016 159.258 500.66C159.163 500.335 159.004 500.011 158.964 499.67C158.909 499.339 158.904 499.017 158.953 498.679C159.002 498.342 159.08 497.984 159.079 497.637C159.097 497.256 159.131 496.864 159.188 496.477C159.237 496.139 159.222 495.802 159.221 495.456C159.23 495.124 159.215 494.787 159.214 494.441C159.2 494.169 159.175 493.882 159.111 493.6C159.023 493.315 158.998 493.028 158.959 492.751C158.908 492.395 158.893 492.059 158.892 491.712L160.264 493.606Z" fill="white" stroke="#120002" stroke-width="5.16763" stroke-linejoin="round"/>
<path d="M158.539 469.82C158.584 469.571 158.59 469.329 158.596 469.086C158.622 468.873 158.648 468.659 158.66 468.456C158.682 468.267 158.668 468.06 158.715 467.876C158.771 467.706 158.803 467.532 158.835 467.359C158.862 467.21 158.894 467.036 158.896 466.882C158.913 466.718 158.916 466.565 158.933 466.401C158.985 466.257 158.962 466.099 159.004 465.939C159.037 465.83 159.031 465.726 159.049 465.627C159.062 465.552 159.101 465.482 159.114 465.408C159.175 465.214 159.237 465.019 159.273 464.821C159.329 464.651 159.351 464.463 159.383 464.289C159.419 464.09 159.5 463.926 159.562 463.731C159.623 463.537 159.684 463.343 159.735 463.134C159.746 462.931 159.847 462.731 159.908 462.537C159.969 462.343 160.045 462.139 160.096 461.93C160.163 461.775 160.155 461.607 160.172 461.443C160.154 461.26 160.186 461.086 160.218 460.913C160.249 460.739 160.242 460.57 160.249 460.392C160.256 460.214 160.248 460.045 160.215 459.873C160.183 459.7 160.19 459.522 160.172 459.339C160.164 459.17 160.171 458.992 160.178 458.814L160.169 458.234C160.17 458.016 160.167 457.823 160.168 457.605C160.18 457.402 160.166 457.194 160.168 456.977C160.175 456.798 160.167 456.63 160.174 456.451C160.171 456.258 160.207 456.06 160.228 455.871C160.294 455.652 160.36 455.433 160.436 455.229C160.532 455.054 160.529 454.861 160.575 454.677C160.636 454.483 160.722 454.293 160.818 454.118C160.933 453.908 161.088 453.693 161.228 453.487C161.378 453.297 161.519 453.091 161.659 452.886C161.838 452.675 161.968 452.455 162.103 452.21C162.194 452.06 162.286 451.91 162.367 451.745C162.463 451.57 162.524 451.376 162.616 451.226C162.741 451.03 162.802 450.836 162.878 450.632C162.953 450.363 163.093 450.158 163.163 449.914C163.258 449.675 163.328 449.431 163.359 449.193C163.41 448.984 163.496 448.794 163.557 448.6C163.628 448.42 163.665 448.222 163.701 448.023C163.747 447.839 163.754 447.661 163.796 447.502C163.858 447.372 163.92 447.242 163.972 447.097L164.617 448.062C164.569 448.182 164.492 448.322 164.455 448.456C164.423 448.63 164.381 448.789 164.35 448.963C164.313 449.162 164.277 449.36 164.201 449.565C164.13 449.744 164.059 449.924 164.022 450.122C163.962 450.381 163.892 450.625 163.822 450.869C163.727 451.108 163.587 451.313 163.527 451.572C163.451 451.776 163.361 451.991 163.25 452.176C163.154 452.351 163.093 452.545 163.001 452.695C162.92 452.86 162.814 453.02 162.722 453.17C162.588 453.415 162.433 453.63 162.278 453.846C162.138 454.051 162.008 454.271 161.848 454.447C161.693 454.663 161.553 454.868 161.448 455.093C161.366 455.258 161.27 455.433 161.224 455.617C161.202 455.805 161.166 456.004 161.095 456.183C161.004 456.398 160.928 456.602 160.902 456.816C160.88 457.004 160.834 457.188 160.852 457.371C160.845 457.549 160.848 457.743 160.856 457.911C160.844 458.114 160.843 458.332 160.856 458.54C160.845 458.743 160.843 458.961 160.857 459.169C160.86 459.362 160.838 459.55 160.842 459.743C160.849 459.911 160.852 460.105 160.86 460.273C160.868 460.441 160.886 460.624 160.918 460.797C160.936 460.98 160.929 461.158 160.927 461.312C160.92 461.49 160.913 461.668 160.891 461.857C160.859 462.031 160.853 462.209 160.846 462.388C160.828 462.551 160.811 462.715 160.755 462.884C160.679 463.089 160.618 463.283 160.567 463.492C160.481 463.681 160.42 463.875 160.379 464.099C160.333 464.283 160.282 464.492 160.196 464.681C160.149 464.865 160.078 465.045 160.042 465.244C160.01 465.417 159.978 465.591 159.932 465.775C159.895 465.974 159.834 466.168 159.773 466.362C159.717 466.532 159.71 466.71 159.663 466.894C159.661 467.048 159.634 467.197 159.606 467.346C159.589 467.509 159.597 467.678 159.57 467.827C159.553 467.99 159.525 468.139 159.498 468.288C159.477 468.477 159.42 468.646 159.374 468.83C159.342 469.004 159.355 469.212 159.334 469.4C159.322 469.604 159.286 469.802 159.264 469.991C159.254 470.258 159.243 470.526 159.208 470.789L158.539 469.82Z" fill="white" stroke="#120002" stroke-width="5.16763" stroke-linejoin="round"/>
<path d="M154.398 489.98C154.417 489.663 154.427 489.331 154.392 489.029C154.385 488.925 154.364 488.831 154.343 488.738C154.228 488.101 154.089 487.459 154 486.827C153.973 486.694 153.956 486.575 153.929 486.442C153.871 486.2 153.765 485.796 153.707 485.554C153.568 484.977 153.426 484.425 153.273 483.858C152.888 482.453 152.435 481.074 152.051 479.669C151.702 478.63 151.447 477.569 151.138 476.525C151.007 476.051 150.86 475.588 150.739 475.13C150.559 474.43 150.301 473.741 150.106 473.05C151.072 475.832 150.592 474.32 150.29 473.726C150.239 473.588 150.121 473.387 150.03 473.255C149.948 473.073 149.822 472.922 149.71 472.76L149.335 471.023C149.447 471.185 149.569 471.361 149.676 471.547C149.869 471.891 149.732 471.66 149.946 472.033C149.996 472.106 150.047 472.18 150.083 472.263C150.119 472.347 150.145 472.416 150.166 472.51C150.697 473.813 148.87 468.936 150.953 474.591C151.146 475.217 151.325 475.853 151.479 476.484C151.895 477.998 152.315 479.486 152.77 480.994C153.165 482.414 153.614 483.817 154.018 485.252C154.307 486.267 154.596 487.282 154.791 488.319C154.901 488.981 155.03 489.608 155.155 490.259C155.161 490.363 155.193 490.472 155.199 490.576C155.24 490.917 155.211 491.284 155.241 491.61L154.398 489.98Z" fill="white" stroke="#120002" stroke-width="5.16763" stroke-linejoin="round"/>
<path d="M146.958 489.723C146.978 489.405 146.997 489.088 146.952 488.772C146.956 488.683 146.924 488.574 146.903 488.481C146.789 487.844 146.66 487.217 146.56 486.57C146.543 486.451 146.516 486.318 146.499 486.199C146.455 485.948 146.34 485.529 146.267 485.297C146.139 484.735 145.996 484.182 145.843 483.615C145.459 482.21 145.006 480.831 144.621 479.426C144.287 478.377 144.017 477.327 143.708 476.282C143.577 475.809 143.431 475.346 143.299 474.873C143.119 474.172 142.871 473.498 142.676 472.808C143.657 475.58 143.152 474.063 142.875 473.473C142.799 473.331 142.682 473.13 142.615 473.002C142.518 472.831 142.407 472.669 142.281 472.518L141.896 470.766C142.017 470.942 142.139 471.118 142.246 471.305C142.44 471.648 142.302 471.418 142.506 471.776C142.557 471.849 142.617 471.937 142.653 472.021C142.679 472.09 142.715 472.174 142.741 472.242C143.268 473.571 141.441 468.694 143.523 474.349C143.716 474.975 143.895 475.61 144.049 476.242C144.455 477.74 144.885 479.244 145.33 480.737C145.735 482.171 146.198 483.565 146.578 484.995C146.867 486.01 147.166 487.04 147.361 488.077C147.461 488.724 147.6 489.365 147.715 490.002C147.732 490.121 147.763 490.229 147.77 490.333C147.81 490.674 147.786 491.016 147.812 491.367L146.958 489.723Z" fill="white" stroke="#120002" stroke-width="5.16763" stroke-linejoin="round"/>
<path d="M140.133 489.54C140.138 489.232 140.143 488.925 140.123 488.614C140.111 488.535 140.09 488.441 140.069 488.347C139.95 487.735 139.831 487.123 139.737 486.515C139.71 486.382 139.693 486.264 139.676 486.145C139.618 485.903 139.522 485.514 139.464 485.272C139.316 484.745 139.184 484.207 139.027 483.665C138.658 482.314 138.235 480.979 137.867 479.628C137.548 478.633 137.284 477.623 136.995 476.607L136.587 475.262C136.428 474.591 136.189 473.932 135.99 473.266C136.925 475.94 136.461 474.482 136.179 473.917C136.113 473.789 135.996 473.588 135.929 473.461C135.842 473.304 135.731 473.142 135.63 472.995L135.245 471.308C135.367 471.484 135.479 471.646 135.576 471.817C135.769 472.161 135.657 471.935 135.85 472.278C135.886 472.362 135.937 472.435 135.973 472.519C135.999 472.588 136.025 472.657 136.061 472.74C136.572 474.014 134.817 469.304 136.807 474.763C136.994 475.349 137.163 475.97 137.321 476.577C137.711 478.021 138.116 479.456 138.546 480.895C138.934 482.275 139.382 483.614 139.761 484.98C140.029 485.966 140.323 486.956 140.498 487.964L140.855 489.8C140.861 489.904 140.893 490.012 140.899 490.116C140.929 490.442 140.905 490.784 140.936 491.111L140.133 489.54Z" fill="white" stroke="#120002" stroke-width="4.9677" stroke-linejoin="round"/>
<path d="M133.188 489.027C133.188 488.744 133.218 488.442 133.169 488.15C133.158 488.071 133.136 487.977 133.115 487.884C133.002 487.311 132.878 486.724 132.765 486.151C132.748 486.033 132.731 485.914 132.704 485.781C132.656 485.554 132.546 485.174 132.483 484.958C132.346 484.445 132.194 483.942 132.047 483.415C131.664 482.139 131.203 480.874 130.825 479.573C130.498 478.627 130.215 477.651 129.917 476.686C129.776 476.262 129.636 475.839 129.495 475.415C129.331 474.769 129.074 474.144 128.87 473.504C129.852 476.058 129.364 474.66 129.063 474.13C128.997 474.002 128.89 473.816 128.809 473.698C128.722 473.541 128.606 473.405 128.495 473.243L128.107 471.645C128.219 471.806 128.345 471.958 128.442 472.13C128.64 472.448 128.513 472.232 128.721 472.566C128.757 472.649 128.822 472.713 128.858 472.796L128.936 473.003C129.471 474.217 127.66 469.741 129.725 474.931C129.927 475.507 130.09 476.088 130.253 476.67C130.667 478.055 131.085 479.415 131.538 480.794C131.941 482.099 132.398 483.389 132.8 484.695C133.092 485.621 133.37 486.557 133.579 487.519C133.678 488.102 133.826 488.694 133.925 489.277C133.956 489.385 133.977 489.479 133.984 489.583C134.029 489.899 133.984 490.212 134.029 490.528L133.188 489.027Z" fill="white" stroke="#120002" stroke-width="5.16763" stroke-linejoin="round"/>
<path d="M125.744 488.794C125.744 488.512 125.759 488.219 125.734 487.932C125.713 487.839 125.692 487.745 125.68 487.666C125.557 487.079 125.419 486.502 125.32 485.919L125.27 485.563C125.221 485.336 125.111 484.957 125.048 484.74C124.901 484.212 124.749 483.71 124.612 483.197C124.22 481.906 123.759 480.641 123.366 479.35C123.054 478.395 122.78 477.433 122.483 476.468C122.342 476.044 122.201 475.621 122.061 475.197C121.887 474.537 121.639 473.927 121.435 473.286C122.408 475.825 121.93 474.442 121.619 473.897C121.562 473.784 121.445 473.583 121.364 473.466C121.278 473.309 121.162 473.172 121.06 473.025L120.662 471.412C120.774 471.574 120.91 471.74 121.007 471.912C121.205 472.23 121.078 472.014 121.276 472.333C121.312 472.417 121.363 472.49 121.414 472.563C121.44 472.632 121.476 472.716 121.501 472.785C122.036 473.999 120.215 469.508 122.28 474.698C122.483 475.274 122.646 475.856 122.809 476.438C123.222 477.822 123.651 479.197 124.094 480.561C124.496 481.867 124.953 483.157 125.355 484.462C125.648 485.388 125.936 486.339 126.134 487.287C126.243 487.884 126.381 488.461 126.49 489.059C126.511 489.152 126.533 489.246 126.54 489.35C126.584 489.666 126.55 489.994 126.57 490.305L125.744 488.794Z" fill="white" stroke="#120002" stroke-width="5.16763" stroke-linejoin="round"/>
<path d="M118.869 489.231C118.894 488.953 118.909 488.66 118.875 488.359C118.863 488.28 118.842 488.186 118.821 488.092C118.697 487.505 118.569 486.943 118.471 486.36C118.444 486.227 118.427 486.108 118.395 486C118.347 485.773 118.237 485.393 118.189 485.166C118.037 484.664 117.9 484.151 117.738 483.634C117.37 482.347 116.909 481.082 116.517 479.791C116.179 478.831 115.921 477.86 115.608 476.904C115.482 476.471 115.342 476.047 115.201 475.624C115.022 474.988 114.779 474.353 114.561 473.723C115.558 476.266 115.07 474.868 114.769 474.338C114.703 474.211 114.581 474.034 114.515 473.907C114.428 473.75 114.302 473.598 114.186 473.462L113.798 471.864C113.924 472.015 114.05 472.166 114.147 472.338C114.346 472.657 114.218 472.441 114.412 472.784L114.564 473.005L114.642 473.211C115.176 474.426 113.341 469.945 115.431 475.139C115.618 475.726 115.796 476.297 115.959 476.879C116.363 478.249 116.791 479.623 117.244 481.002C117.647 482.308 118.103 483.598 118.496 484.889C118.784 485.84 119.076 486.766 119.26 487.723L119.63 489.485C119.652 489.579 119.668 489.698 119.69 489.791C119.71 490.103 119.69 490.42 119.72 490.747L118.869 489.231Z" fill="white" stroke="#120002" stroke-width="5.16763" stroke-linejoin="round"/>
<path d="M111.204 488.522C111.214 488.254 111.239 487.976 111.196 487.725C111.199 487.635 111.163 487.552 111.152 487.473C111.034 486.925 110.902 486.387 110.784 485.84C110.777 485.736 110.76 485.617 110.729 485.509C110.676 485.307 110.576 484.942 110.508 484.75C110.367 484.262 110.235 483.789 110.079 483.311C109.683 482.109 109.233 480.923 108.847 479.736C108.511 478.84 108.254 477.934 107.942 477.042C107.797 476.644 107.666 476.235 107.531 475.851C107.348 475.24 107.106 474.669 106.894 474.079C107.883 476.454 107.391 475.145 107.096 474.655C107.03 474.527 106.908 474.351 106.837 474.248C106.736 474.101 106.62 473.964 106.518 473.818L106.123 472.334C106.249 472.485 106.375 472.636 106.476 472.783C106.665 473.087 106.547 472.886 106.735 473.19L106.877 473.396C106.903 473.464 106.929 473.533 106.97 473.592C107.493 474.727 105.678 470.558 107.742 475.402C107.939 475.938 108.111 476.47 108.268 477.012C108.7 478.297 109.107 479.578 109.568 480.843C109.96 482.07 110.42 483.27 110.826 484.487C111.117 485.349 111.404 486.235 111.601 487.118C111.705 487.676 111.837 488.214 111.955 488.762C111.976 488.855 111.998 488.949 112.004 489.053C112.054 489.344 112.014 489.632 112.049 489.934L111.204 488.522Z" fill="white" stroke="#120002" stroke-width="5.16763" stroke-linejoin="round"/>
<path d="M103.755 488.314C103.765 488.047 103.791 487.769 103.761 487.507C103.74 487.413 103.714 487.344 103.703 487.265C103.585 486.717 103.453 486.18 103.349 485.622C103.328 485.528 103.311 485.41 103.28 485.301C103.242 485.089 103.127 484.734 103.059 484.542C102.918 484.054 102.776 483.566 102.63 483.103C102.234 481.902 101.784 480.716 101.388 479.514C101.062 478.633 100.805 477.726 100.493 476.835C100.363 476.426 100.217 476.027 100.082 475.643C99.8992 475.032 99.6573 474.462 99.4447 473.871C100.424 476.232 99.9422 474.938 99.637 474.433C99.5807 474.32 99.4591 474.143 99.3881 474.041C99.2867 473.894 99.1853 473.747 99.0692 473.61L98.6736 472.126C98.7998 472.277 98.9159 472.414 99.0275 472.576C99.2155 472.88 99.0984 472.679 99.2865 472.982L99.4284 473.188C99.4543 473.257 99.4802 473.326 99.5208 473.385C100.044 474.52 98.2288 470.351 100.307 475.184C100.49 475.731 100.676 476.252 100.819 476.805C101.251 478.09 101.658 479.371 102.119 480.636C102.511 481.862 102.971 483.063 103.377 484.279C103.668 485.141 103.955 486.028 104.152 486.911C104.256 487.469 104.388 488.006 104.506 488.554L104.57 488.835C104.595 489.122 104.565 489.425 104.6 489.726L103.755 488.314Z" fill="white" stroke="#120002" stroke-width="5.16763" stroke-linejoin="round"/>
<path d="M96.8851 488.726C96.9102 488.448 96.9206 488.181 96.8814 487.904C96.8702 487.825 96.859 487.746 96.8377 487.652C96.7152 487.129 96.5827 486.592 96.4794 486.034C96.448 485.925 96.4413 485.821 96.4098 485.713C96.3717 485.501 96.257 485.146 96.2042 484.944C96.0479 484.466 95.9063 483.978 95.7601 483.515C95.3789 482.303 94.9142 481.127 94.533 479.916C94.2068 479.035 93.9347 478.138 93.6231 477.247C93.4927 476.838 93.3475 476.439 93.2024 476.04C93.0293 475.444 92.7772 474.859 92.5894 474.273C93.5684 476.634 93.0723 475.349 92.7818 474.834L92.5182 474.452C92.4315 474.295 92.3154 474.159 92.1993 474.022L91.8037 472.538C91.9299 472.689 92.0607 472.816 92.1575 472.987L92.4313 473.384C92.4673 473.468 92.5326 473.531 92.5585 473.6C92.5991 473.659 92.6249 473.727 92.6508 473.796C93.1742 474.932 91.3488 470.748 93.4376 475.596C93.6344 476.132 93.8064 476.664 93.9638 477.206C94.3709 478.487 94.8028 479.772 95.2493 481.048C95.6553 482.264 96.1154 483.465 96.5068 484.691C96.7981 485.553 97.0995 486.429 97.2825 487.323C97.4004 487.87 97.533 488.408 97.6509 488.956C97.6575 489.06 97.6789 489.153 97.7002 489.247C97.7247 489.534 97.7097 489.826 97.7444 490.128L96.8851 488.726Z" fill="white" stroke="#120002" stroke-width="5.16763" stroke-linejoin="round"/>
<path d="M89.9458 488.535C89.9562 488.267 89.9666 488 89.9274 487.723C89.9162 487.644 89.905 487.565 89.8837 487.471C89.7511 486.933 89.6332 486.386 89.5255 485.853C89.5087 485.734 89.4874 485.64 89.4706 485.522C89.4076 485.305 89.303 484.965 89.2502 484.763C89.1086 484.275 88.9523 483.797 88.796 483.319C88.4249 482.122 87.9749 480.936 87.579 479.734C87.2527 478.853 86.9705 477.942 86.6736 477.041C86.5387 476.657 86.3935 476.258 86.2631 475.849C86.09 475.253 85.8379 474.668 85.6253 474.077C86.6145 476.452 86.1329 475.158 85.8277 474.653C85.7715 474.54 85.6498 474.364 85.5788 474.261C85.4775 474.114 85.3614 473.977 85.2453 473.841L84.8644 472.347C84.9805 472.483 85.1067 472.635 85.2035 472.806L85.4772 473.203L85.6192 473.409L85.6969 473.615C86.235 474.74 84.3947 470.567 86.4835 475.415C86.6703 475.936 86.8524 476.483 87.0098 477.025C87.4169 478.306 87.8488 479.591 88.2954 480.866C88.7014 482.083 89.1615 483.284 89.5675 484.5C89.8441 485.372 90.1354 486.234 90.3285 487.142C90.4464 487.689 90.579 488.227 90.6968 488.775C90.7182 488.868 90.7395 488.962 90.7462 489.066C90.7854 489.343 90.7558 489.645 90.7803 489.932L89.9458 488.535Z" fill="white" stroke="#120002" stroke-width="5.16763" stroke-linejoin="round"/>
<path d="M82.4968 488.327C82.5072 488.06 82.5177 487.792 82.4785 487.515C82.4673 487.436 82.4459 487.343 82.4347 487.264C82.3022 486.726 82.1843 486.178 82.0765 485.645C82.0597 485.527 82.0429 485.408 82.0216 485.314C81.9586 485.097 81.8541 484.757 81.7911 484.541C81.6596 484.067 81.5033 483.59 81.347 483.112C80.9759 481.915 80.5259 480.729 80.13 479.527C79.7936 478.631 79.5362 477.724 79.2247 476.833C79.0897 476.449 78.9446 476.051 78.8141 475.642C78.641 475.045 78.3889 474.46 78.1763 473.87C79.1655 476.245 78.684 474.95 78.3788 474.446C78.3225 474.333 78.2008 474.156 78.1197 474.039C78.0285 473.907 77.9124 473.77 77.7963 473.633L77.4155 472.139C77.5315 472.276 77.6577 472.427 77.7444 472.584L78.0283 472.995L78.1702 473.201L78.2478 473.408C78.7859 474.533 76.9604 470.349 79.0244 475.192C79.2213 475.729 79.4035 476.276 79.5609 476.818C79.9826 478.088 80.3998 479.384 80.861 480.649C81.2524 481.875 81.7125 483.076 82.1084 484.278C82.3951 485.164 82.6865 486.026 82.8841 486.909C82.9873 487.467 83.13 488.019 83.2479 488.567C83.2692 488.661 83.2905 488.755 83.2871 488.844C83.3364 489.135 83.3068 489.438 83.3313 489.725L82.4968 488.327Z" fill="white" stroke="#120002" stroke-width="5.16763" stroke-linejoin="round"/>
<path d="M46.0676 480.999C46.4782 480.997 46.9135 481 47.3241 480.998C47.6704 480.997 48.0168 480.996 48.3778 480.985C48.8775 480.987 49.3624 480.998 49.8621 481C50.3122 480.992 50.7476 480.995 51.1977 480.987C51.7121 480.978 52.2219 480.995 52.7363 480.986C53.2608 480.992 53.7605 480.993 54.2749 480.985C54.7351 480.992 55.21 480.989 55.6849 480.986C56.1203 480.988 56.5704 480.981 57.0058 480.983C57.5698 480.984 58.1338 480.984 58.7226 480.989C59.158 480.992 59.6081 480.984 60.0581 480.976C60.4541 480.985 60.8646 480.983 61.2605 480.991C61.6711 480.989 62.0818 480.987 62.507 480.975C62.8386 480.984 63.1849 480.983 63.5312 480.982C63.838 480.987 64.1595 480.982 64.4663 480.986C64.7483 480.986 65.045 480.977 65.3518 480.981C65.6733 480.976 65.9801 480.981 66.3117 480.99C66.6975 480.983 67.0833 480.977 67.4792 480.985C67.786 480.99 68.0974 480.97 68.4042 480.974C68.7358 480.984 69.0719 480.968 69.4036 480.977C69.6608 480.973 69.918 480.969 70.1605 480.975C70.4177 480.97 70.6602 480.976 70.9027 480.982C71.1102 480.968 71.3133 480.98 71.5209 480.966C71.7634 480.972 72.0205 480.968 72.2631 480.974C72.5056 480.98 72.7379 480.971 72.9804 480.977C73.2624 480.977 73.5196 480.972 73.7768 480.968C74.0193 480.974 74.2765 480.969 74.5191 480.975C74.8259 480.98 75.1078 480.98 75.4146 480.985C75.5331 480.968 75.647 480.976 75.7756 480.974L76.6587 481.122L76.2729 481.129C75.9808 481.114 75.6988 481.114 75.4168 481.114C75.1596 481.118 74.9171 481.112 74.6599 481.117C74.4027 481.121 74.1354 481.111 73.8782 481.115C73.621 481.119 73.3886 481.128 73.1461 481.122C72.9036 481.116 72.6464 481.121 72.4039 481.115C72.1963 481.128 71.9933 481.117 71.7858 481.13L71.0582 481.113L70.2867 481.126C69.955 481.117 69.6087 481.117 69.2872 481.123C68.9804 481.118 68.6589 481.124 68.3521 481.119C67.9664 481.125 67.5704 481.117 67.1846 481.124C66.8632 481.129 66.5564 481.124 66.2247 481.115C65.9281 481.125 65.636 481.11 65.3393 481.12C65.0325 481.115 64.7109 481.121 64.4041 481.116C64.068 481.132 63.7217 481.133 63.3754 481.133C62.9547 481.121 62.5441 481.123 62.1335 481.125C61.7376 481.116 61.3372 481.133 60.9412 481.125C60.481 481.118 60.0309 481.125 59.5707 481.118C59.0067 481.118 58.4427 481.117 57.8787 481.117C57.4286 481.125 56.9932 481.122 56.5431 481.13C56.0829 481.123 55.608 481.126 55.1331 481.129C54.6334 481.127 54.1089 481.121 53.5945 481.13C53.0948 481.128 52.5805 481.137 52.056 481.131C51.6206 481.128 51.1705 481.136 50.7103 481.129C50.2354 481.132 49.7605 481.135 49.2608 481.134C48.9145 481.134 48.5682 481.135 48.2219 481.136C47.7966 481.148 47.3759 481.136 46.9653 481.138L46.0676 480.999Z" fill="#120002" stroke="#120002" stroke-width="3.84647" stroke-linejoin="round"/>
<path d="M75.3252 472.344C55.133 466.807 51.5171 467.442 49.9906 473.272C49.3757 475.585 47.708 480.362 52.4326 480.955L46.9869 480.73L52.0995 464.956C61.6303 465.697 65.562 468.315 75.3252 472.344Z" fill="#FFFAFA" stroke="#120002" stroke-width="2.52466" stroke-linejoin="round"/>
</g>
<path d="M162.879 219C164.197 209.776 165.185 201.151 165.844 193.125C166.503 185.039 166.832 177.462 166.832 170.395C166.832 162.249 166.473 154.312 165.754 146.586C165.095 138.859 164.316 131.372 163.418 124.125L162.879 121.07C166.533 120.651 170.156 119.812 173.75 118.555C177.404 117.237 181.327 115.41 185.52 113.074C184.142 121.999 183.094 130.115 182.375 137.422C181.716 144.669 181.387 151.228 181.387 157.098L181.477 161.141C182.135 174.677 182.674 185.189 183.094 192.676C183.573 200.163 183.962 204.745 184.262 206.422L188.484 208.488C193.156 210.165 197.678 211.004 202.051 211.004C212.293 211.004 220.978 206.721 228.105 198.156C230.98 194.083 233.406 190.22 235.383 186.566C237.359 182.913 238.947 179.289 240.145 175.695C241.402 172.042 242.271 168.358 242.75 164.645C243.289 160.871 243.559 156.828 243.559 152.516C243.559 147.844 243.199 143.591 242.48 139.758C241.822 135.865 240.773 132.271 239.336 128.977C237.898 125.682 236.072 122.628 233.855 119.812C231.699 116.938 229.094 114.182 226.039 111.547C222.326 108.312 217.803 105.677 212.473 103.641C207.202 101.604 201.182 100.586 194.414 100.586C191.299 100.586 187.975 100.975 184.441 101.754C180.967 102.473 177.434 103.551 173.84 104.988C170.246 106.366 166.682 108.043 163.148 110.02C159.615 111.996 156.26 114.212 153.086 116.668L159.105 93.1289L173.66 87.3789C178.152 86.0612 182.315 85.043 186.148 84.3242C189.982 83.5456 193.486 83.1562 196.66 83.1562C199.236 83.1562 202.051 83.3958 205.105 83.875C208.16 84.2943 211.424 85.1029 214.898 86.3008C218.432 87.4987 222.116 89.1758 225.949 91.332C229.783 93.4883 233.766 96.2734 237.898 99.6875C240.654 101.964 243.259 104.839 245.715 108.312C248.23 111.786 250.417 115.77 252.273 120.262C254.19 124.754 255.688 129.725 256.766 135.176C257.904 140.566 258.473 146.376 258.473 152.605C258.473 159.134 257.784 165.214 256.406 170.844C255.089 176.414 253.352 181.505 251.195 186.117C249.039 190.729 246.553 194.802 243.738 198.336C240.983 201.87 238.168 204.805 235.293 207.141C230.501 211.034 225.59 213.969 220.559 215.945C215.587 217.922 210.376 218.94 204.926 219L185.52 210.734C182.465 211.094 179.77 211.603 177.434 212.262C175.158 212.861 173.121 213.549 171.324 214.328C169.527 215.107 167.94 215.915 166.562 216.754C165.245 217.533 164.017 218.281 162.879 219Z" fill="#120002"/>
<path d="M303.492 219C306.487 208.997 310.53 186.836 315.621 152.516C318.137 135.565 320.173 119.753 321.73 105.078C318.676 99.3281 315.831 94.7461 313.195 91.332C316.789 90.9128 320.443 90.0742 324.156 88.8164C329.607 86.9596 333.5 85.1029 335.836 83.2461V83.4258L336.016 83.2461L335.926 83.4258C337.723 90.7331 344.251 112.266 355.512 148.023C363.658 173.779 369.318 188.543 372.492 192.316C375.786 187.585 382.195 172.311 391.719 146.496C400.703 122.118 406.273 105.797 408.43 97.5312C408.13 96.6927 407.561 95.4948 406.723 93.9375L405.195 91.0625C412.443 90.224 419.78 87.6784 427.207 83.4258L427.836 83.0664V83.1562V83.2461C427.836 102.473 429.543 123.766 432.957 147.125C437.09 175.276 441.462 195.401 446.074 207.5C446.853 209.536 447.392 210.615 447.691 210.734C443.618 211.214 439.965 212.052 436.73 213.25C431.52 215.167 427.626 217.083 425.051 219C425.171 217.862 425.23 216.454 425.23 214.777C425.111 203.457 423.014 181.385 418.941 148.562C417.264 134.966 415.408 123.556 413.371 114.332L399.984 147.035C390.581 170.874 384.741 190.999 382.465 207.41C382.225 209.147 382.076 210.046 382.016 210.105L382.105 211.004C374.858 211.842 367.521 214.388 360.094 218.641L359.465 219C357.548 200.911 351.469 178.151 341.227 150.719C336.375 137.721 331.883 126.671 327.75 117.566C326.073 127.569 324.306 139.339 322.449 152.875C319.574 173.479 317.777 192.167 317.059 208.938L316.969 211.004C312.417 211.902 308.044 214.448 303.852 218.641L303.492 219Z" fill="#120002"/>
<path d="M63.6294 395C64.6821 387.87 65.4478 380.333 65.9263 372.39C66.4526 364.399 66.7158 355.881 66.7158 346.837C66.7158 334.635 66.4766 324.347 65.998 315.973C65.5195 307.599 64.9453 301.139 64.2754 296.593C58.4375 296.976 52.9585 297.837 47.8384 299.177C42.7183 300.517 37.9092 302.335 33.4111 304.632C34.3682 302.814 35.3252 300.397 36.2822 297.383C37.1914 294.32 37.8374 290.708 38.2202 286.544L40.0864 287.119C45.7329 288.889 58.4136 289.774 78.1284 289.774C91.2397 289.774 102.724 288.698 112.582 286.544C111.194 289.798 110.117 292.885 109.352 295.804C108.634 298.675 108.155 301.618 107.916 304.632L106.409 303.627C100.571 299.751 92.1011 297.431 80.9995 296.665C80.186 302.838 79.564 309.298 79.1333 316.045C78.7026 322.744 78.4873 330.209 78.4873 338.439C78.5352 349.972 78.7505 359.662 79.1333 367.509C79.5161 375.357 80.186 381.458 81.1431 385.812L81.7173 388.396C79.5161 388.636 77.4824 388.995 75.6162 389.473C73.75 389.952 72.0513 390.526 70.52 391.196C69.0366 391.866 67.7207 392.536 66.5723 393.206C65.4238 393.828 64.4429 394.426 63.6294 395ZM133.808 324.371L133.736 324.443C132.348 327.027 130.865 331.357 129.286 337.435C128.137 341.789 127.563 345.856 127.563 349.637C127.563 351.12 127.683 352.675 127.922 354.302C128.544 358.513 130.314 362.796 133.233 367.15C136.248 371.696 140.387 375.166 145.651 377.558C150.58 379.807 157.638 381.984 166.825 384.09L166.897 384.018C168.045 381.434 169.409 376.697 170.988 369.806C171.945 365.643 172.424 361.863 172.424 358.465C172.424 356.647 172.304 355.044 172.065 353.656C171.347 349.445 169.577 345.163 166.753 340.808C164.456 337.267 160.317 333.822 154.336 330.472C149.646 327.84 142.804 325.807 133.808 324.371ZM151.321 395.287C148.45 394.569 145.053 393.182 141.129 391.124C137.253 389.066 133.664 386.458 130.362 383.3C126.151 379.233 123.208 374.807 121.534 370.021C119.476 365.141 118.447 360.116 118.447 354.948C118.447 354.805 118.447 354.709 118.447 354.661C118.447 349.541 119.62 344.253 121.964 338.798C123.83 334.444 126.199 330.735 129.07 327.673C130.41 326.237 131.846 324.945 133.377 323.797L148.594 313.82C150.938 314.442 154.36 315.901 158.858 318.198C162.207 319.921 165.772 322.505 169.553 325.95C173.811 330.065 176.802 334.635 178.525 339.66C180.439 345.019 181.42 349.996 181.468 354.589V354.876C181.468 361.48 180.415 366.72 178.309 370.596C175.056 376.577 172.328 380.549 170.127 382.511C168.931 383.563 168.117 384.425 167.686 385.095L151.321 395.287ZM213.389 324.371L213.317 324.443C211.929 327.027 210.446 331.357 208.867 337.435C207.718 341.789 207.144 345.856 207.144 349.637C207.144 351.12 207.264 352.675 207.503 354.302C208.125 358.513 209.895 362.796 212.814 367.15C215.829 371.696 219.968 375.166 225.232 377.558C230.16 379.807 237.219 381.984 246.406 384.09L246.478 384.018C247.626 381.434 248.99 376.697 250.569 369.806C251.526 365.643 252.005 361.863 252.005 358.465C252.005 356.647 251.885 355.044 251.646 353.656C250.928 349.445 249.158 345.163 246.334 340.808C244.037 337.267 239.898 333.822 233.917 330.472C229.227 327.84 222.385 325.807 213.389 324.371ZM230.902 395.287C228.031 394.569 224.634 393.182 220.71 391.124C216.834 389.066 213.245 386.458 209.943 383.3C205.732 379.233 202.789 374.807 201.115 370.021C199.057 365.141 198.028 360.116 198.028 354.948C198.028 354.805 198.028 354.709 198.028 354.661C198.028 349.541 199.201 344.253 201.545 338.798C203.411 334.444 205.78 330.735 208.651 327.673C209.991 326.237 211.427 324.945 212.958 323.797L228.175 313.82C230.519 314.442 233.941 315.901 238.439 318.198C241.788 319.921 245.353 322.505 249.134 325.95C253.392 330.065 256.383 334.635 258.106 339.66C260.02 345.019 261.001 349.996 261.049 354.589V354.876C261.049 361.48 259.996 366.72 257.89 370.596C254.637 376.577 251.909 380.549 249.708 382.511C248.512 383.563 247.698 384.425 247.267 385.095L230.902 395.287ZM281.198 395C283.256 380.645 284.284 364.566 284.284 346.766C284.284 344.134 284.261 341.55 284.213 339.014C283.83 318.055 282.969 303.508 281.629 295.373L281.198 292.933C287.036 292.263 292.898 290.229 298.783 286.832L299.286 286.544C297.133 300.134 296.056 316.595 296.056 335.927C296.056 336.741 296.056 337.578 296.056 338.439C296.056 361.408 296.941 377.199 298.712 385.812L299.286 388.396C296.032 388.779 293.113 389.449 290.529 390.406C286.366 391.938 283.256 393.469 281.198 395ZM326.469 395C327.522 387.679 328.312 380.764 328.838 374.256C329.364 367.749 329.628 361.6 329.628 355.81C329.628 348.775 329.341 342.196 328.766 336.071C328.24 329.946 327.618 324.323 326.9 319.203L326.469 316.763C329.388 316.428 332.283 315.758 335.154 314.753C338.073 313.7 341.04 312.336 344.055 310.662L344.557 310.375C343.457 317.648 342.619 324.18 342.045 329.97C341.519 335.712 341.256 340.832 341.256 345.33C341.256 345.952 341.256 346.55 341.256 347.125C341.256 347.699 341.279 348.249 341.327 348.775C341.806 358.824 342.213 366.839 342.548 372.821C342.93 378.802 343.289 382.846 343.624 384.951L346.926 386.602C351.663 387.846 356.066 388.468 360.133 388.468C364.392 388.468 368.34 387.822 371.976 386.53C375.613 385.238 378.963 383.324 382.025 380.788C383.891 378.061 385.255 375.405 386.116 372.821C387.026 370.189 387.48 367.581 387.48 364.997C387.48 359.59 386.092 355.092 383.317 351.503C380.542 347.914 376.522 345.545 371.258 344.397C370.062 344.158 368.89 344.038 367.741 344.038C361.999 344.038 354.271 346.526 344.557 351.503L355.109 333.2C365.014 328.702 369.966 321.524 369.966 311.667C369.966 308.221 368.674 305.374 366.091 303.125C363.554 300.876 359.75 299.751 354.678 299.751C352.285 299.799 349.63 300.11 346.711 300.685C343.792 301.211 340.753 302.024 337.595 303.125C334.485 304.226 331.302 305.613 328.049 307.288C324.842 308.963 321.732 310.949 318.717 313.246L323.455 294.44C326.9 293.052 329.58 292 331.494 291.282C333.408 290.516 334.628 290.038 335.154 289.846C338.6 288.746 342.021 287.908 345.419 287.334C348.816 286.712 352.166 286.401 355.467 286.401C358.817 286.401 361.736 286.712 364.224 287.334C366.713 287.956 368.794 288.817 370.469 289.918C374.058 292.358 376.737 295.086 378.508 298.101C380.279 301.115 381.164 304.345 381.164 307.791C381.116 310.47 380.542 313.054 379.441 315.542C378.388 317.983 377.025 320.232 375.35 322.29C373.675 324.347 371.809 326.166 369.751 327.745C367.741 329.276 365.756 330.424 363.794 331.19C364.607 331.094 365.421 331.022 366.234 330.975C367.048 330.879 367.837 330.831 368.603 330.831C372.287 330.831 375.637 331.31 378.652 332.267C381.714 333.224 384.442 334.492 386.834 336.071C389.227 337.65 391.308 339.492 393.079 341.598C394.849 343.655 396.309 345.809 397.457 348.058C398.606 350.307 399.467 352.556 400.041 354.805C400.615 357.054 400.903 359.159 400.903 361.121C400.903 363.562 400.687 365.787 400.257 367.796C399.826 369.806 399.419 371.361 399.036 372.462C397.649 376.625 395.806 380.166 393.509 383.085C391.26 386.004 388.724 388.373 385.901 390.191C383.126 392.009 380.111 393.325 376.857 394.139C373.651 394.952 370.373 395.359 367.024 395.359C365.014 395.359 363.387 395.311 362.143 395.215C360.899 395.12 360.205 395.048 360.061 395L344.557 388.396C342.548 388.636 340.61 389.019 338.743 389.545C336.925 390.023 335.226 390.574 333.647 391.196C332.116 391.818 330.728 392.464 329.484 393.134C328.24 393.804 327.235 394.426 326.469 395ZM434.187 324.371L434.115 324.443C432.728 327.027 431.244 331.357 429.665 337.435C428.517 341.789 427.942 345.856 427.942 349.637C427.942 351.12 428.062 352.675 428.301 354.302C428.923 358.513 430.694 362.796 433.613 367.15C436.628 371.696 440.767 375.166 446.03 377.558C450.959 379.807 458.017 381.984 467.205 384.09L467.276 384.018C468.425 381.434 469.789 376.697 471.368 369.806C472.325 365.643 472.803 361.863 472.803 358.465C472.803 356.647 472.684 355.044 472.444 353.656C471.727 349.445 469.956 345.163 467.133 340.808C464.836 337.267 460.697 333.822 454.715 330.472C450.026 327.84 443.183 325.807 434.187 324.371ZM451.701 395.287C448.83 394.569 445.432 393.182 441.508 391.124C437.632 389.066 434.044 386.458 430.742 383.3C426.531 379.233 423.588 374.807 421.913 370.021C419.856 365.141 418.827 360.116 418.827 354.948C418.827 354.805 418.827 354.709 418.827 354.661C418.827 349.541 419.999 344.253 422.344 338.798C424.21 334.444 426.579 330.735 429.45 327.673C430.79 326.237 432.225 324.945 433.756 323.797L448.973 313.82C451.318 314.442 454.739 315.901 459.237 318.198C462.587 319.921 466.152 322.505 469.932 325.95C474.191 330.065 477.182 334.635 478.904 339.66C480.818 345.019 481.799 349.996 481.847 354.589V354.876C481.847 361.48 480.795 366.72 478.689 370.596C475.435 376.577 472.708 380.549 470.506 382.511C469.31 383.563 468.497 384.425 468.066 385.095L451.701 395.287ZM491.589 320.28C492.307 320.232 493.288 320.064 494.532 319.777C495.776 319.49 497.188 319.083 498.767 318.557C500.346 318.031 502.021 317.385 503.791 316.619C505.562 315.854 507.356 314.944 509.174 313.892L509.749 315.758C510.706 318.868 512.476 322.84 515.06 327.673C517.644 332.458 521.185 338.152 525.683 344.756C531.808 335.76 536.474 328.797 539.68 323.869C542.934 318.94 544.776 315.997 545.207 315.04L545.709 313.892C547.719 315.279 549.609 316.308 551.379 316.978C553.15 317.648 554.609 318.079 555.758 318.27C549.872 324.012 541.067 334.611 529.344 350.067L531.712 353.441C545.781 373.108 555.208 384.784 559.993 388.468C553.246 389.904 547.408 392.081 542.479 395L541.833 393.277C540.063 389.066 533.603 378.491 522.453 361.552L521.664 360.332C509.366 377.271 502.714 388.492 501.71 393.995L501.207 395C498.48 393.086 495.154 391.579 491.23 390.478C495.345 387.368 504.389 375.692 518.362 355.451C508.169 340.282 499.245 328.558 491.589 320.28Z" fill="#120002"/>
</svg>
