<svg width="600" height="600" viewBox="0 0 600 600" fill="none" xmlns="http://www.w3.org/2000/svg">
<g clip-path="url(#clip0_9_80)">
<path d="M403.094 380.686L384.614 399.175C378.859 387.516 375.148 384.899 365.645 380.229L155.703 170.958C133.162 148.441 124.511 137.741 116.843 113.654C140.382 121.117 150.771 129.068 174.187 152.452L384.126 361.741C388.632 370.905 390.762 374.631 403.094 380.686Z" fill="#FFFAFA" stroke="#120002" stroke-width="5.16763" stroke-linejoin="round"/>
<path fill-rule="evenodd" clip-rule="evenodd" d="M116.786 114.076L365.629 362.611L116.786 114.076Z" fill="#FFFAFA"/>
<path d="M116.786 114.076L365.629 362.611" stroke="#120002" stroke-width="5.16763"/>
<path d="M486.146 461.191C486.438 467.121 479.358 474.773 478.68 475.502C477.996 476.266 470.518 482.92 464.493 482.439C459.589 480.983 452.057 462.888 450.67 458.971C458.603 455.773 459.055 455.584 462.57 447.59C465.913 448.653 484.09 455.284 486.146 461.191Z" fill="#FFFAFA" stroke="#120002" stroke-width="5.16763" stroke-linejoin="round"/>
<path fill-rule="evenodd" clip-rule="evenodd" d="M405.846 387.223C397.529 390.732 392.386 398.011 392.435 403.19L450.506 459.405C457.461 458.079 461.551 453.183 462.978 447.276L405.846 387.223Z" fill="#FFFAFA" stroke="#120002" stroke-width="4.9568"/>
<path fill-rule="evenodd" clip-rule="evenodd" d="M378.199 355.693C374.394 358.737 369.316 362.292 365.348 362.367C365.136 366.591 362.107 370.845 359.607 374.29" fill="#FFFAFA"/>
<path d="M378.199 355.693C374.394 358.737 369.316 362.292 365.348 362.367C365.136 366.591 362.107 370.845 359.607 374.29" stroke="#120002" stroke-width="5.16763"/>
<path d="M404.917 388.171C396.402 391.771 393.924 394.403 390.459 402.823C379.466 413.807 350.952 423.884 350.087 420.879L349.969 404.696C366.942 408.297 386.74 401.039 385.683 383.542C402.561 384.695 410.416 364.995 409.027 345.642L425.001 347.174C427.158 347.875 415.716 377.351 404.917 388.171ZM425.319 347.322C422.022 369.177 416.493 380.341 408.136 388.722L425.319 347.322ZM351.827 421.486C373.662 418.155 384.838 412.609 393.209 404.249L351.827 421.486Z" fill="#FFFAFA"/>
<path d="M425.319 347.322C422.022 369.177 416.493 380.341 408.136 388.722M351.827 421.486C373.662 418.155 384.838 412.609 393.209 404.249M404.917 388.171C396.402 391.771 393.924 394.403 390.459 402.823C379.466 413.807 350.952 423.884 350.087 420.879L349.969 404.696C366.942 408.297 386.74 401.039 385.683 383.542C402.561 384.695 410.416 364.995 409.027 345.642L425.001 347.174C427.158 347.875 415.716 377.351 404.917 388.171Z" stroke="#120002" stroke-width="5.16763" stroke-linejoin="round"/>
<path d="M407.488 386.191C407.761 385.986 407.938 385.71 408.134 385.438C408.337 385.221 408.455 384.97 408.612 384.708C408.783 384.468 408.983 384.268 409.186 384.051C409.413 383.802 409.654 383.574 409.896 383.346C410.143 383.083 410.388 382.837 410.679 382.636C410.99 382.421 411.273 382.164 411.539 381.904C411.801 381.662 412.109 381.464 412.386 381.242C412.656 381.056 412.833 380.779 413.025 380.524C413.188 380.227 413.302 379.904 413.497 379.631C413.713 379.344 413.813 378.999 413.894 378.651C414.023 378.348 414.136 378.024 414.282 377.724C414.474 377.469 414.616 377.186 414.788 376.945C414.898 376.639 415.058 376.36 415.204 376.06C415.25 375.905 415.364 375.781 415.445 375.632C415.524 375.501 415.567 375.364 415.645 375.233C415.855 374.981 416.018 374.685 416.213 374.412C416.458 374.166 416.569 373.86 416.714 373.56C416.866 373.225 417.068 372.917 417.255 372.588C417.418 372.291 417.564 371.991 417.777 371.722C417.914 371.366 418.031 371.024 418.222 370.678C418.379 370.416 418.5 370.148 418.692 369.893C418.776 369.636 418.972 369.454 419.02 369.191C419.075 368.893 419.292 368.696 419.411 368.446C419.574 368.149 419.699 367.864 419.845 367.564C420.266 365.663 417.911 375.048 419.967 367.096C420.145 366.421 419.59 368.46 419.408 369.153C419.375 369.238 419.447 368.942 419.484 368.84C419.473 368.802 419.482 368.749 419.492 368.697C419.707 367.919 419.904 367.139 420.119 366.362C420.129 366.309 420.171 366.281 420.18 366.228C420.241 366.094 420.302 365.96 420.328 365.82C420.352 365.788 420.395 365.65 420.368 365.7C420.186 366.392 420.002 367.103 419.803 367.792L419.825 367.669C419.938 367.254 420.23 365.856 420.557 365.063C419.06 370.559 420.589 364.888 420.605 364.8C420.645 364.68 420.784 364.415 420.86 364.302C420.938 364.171 420.981 364.034 421.025 363.897L420.764 366.208C420.704 366.342 420.625 366.472 420.568 366.589C420.507 366.723 420.446 366.857 420.403 366.994C420.379 367.026 420.353 367.166 420.363 367.114C420.934 364.987 421.333 363.5 420.297 367.374C420.226 367.561 420.21 367.648 420.21 367.648C421.38 363.145 420.456 366.804 420.085 368.133C420.024 368.268 419.963 368.402 419.92 368.539C419.896 368.571 419.87 368.711 419.88 368.658C420.45 366.44 420.57 365.882 420.398 366.721C420.32 367.542 419.756 369.234 419.707 369.407C419.528 370.082 420.443 366.675 420.247 367.347C419.543 369.903 419.951 368.962 419.567 369.871C419.425 370.154 419.279 370.454 419.119 370.733C418.965 370.977 418.829 371.224 418.76 371.502C418.645 371.735 418.512 371.965 418.362 372.191C418.205 372.453 418.083 372.721 417.927 372.982C417.757 373.314 417.669 373.697 417.45 374.002C417.269 374.296 417.123 374.596 416.963 374.875C416.776 375.204 416.574 375.511 416.419 375.864C416.273 376.164 416.113 376.443 415.904 376.695C415.705 376.986 415.528 377.262 415.35 377.538C415.208 377.82 415.051 378.082 414.909 378.364C414.766 378.647 414.652 378.971 414.475 379.247C414.304 379.487 414.147 379.749 414.008 380.014C413.876 380.335 413.748 380.638 413.655 380.947C413.538 381.289 413.404 381.627 413.188 381.914C413.024 382.211 412.907 382.553 412.695 382.822C412.5 383.095 412.276 383.326 412.003 383.53C411.729 383.735 411.421 383.932 411.176 384.178C410.893 384.435 410.593 384.689 410.278 384.921C410.005 385.126 409.778 385.374 409.533 385.62C409.292 385.848 409.065 386.097 408.82 386.343C408.638 386.545 408.453 386.766 408.299 387.01C408.16 387.274 407.974 387.495 407.806 387.718C407.59 388.005 407.363 388.254 407.119 388.5L407.488 386.191Z" fill="#FFFAFA" stroke="#120002" stroke-width="5.16763" stroke-linejoin="round"/>
<path d="M391.888 404.23C391.681 404.374 391.505 404.541 391.329 404.708C391.16 404.841 390.99 404.973 390.838 405.109C390.69 405.227 390.552 405.383 390.389 405.48C390.23 405.56 390.084 405.661 389.939 405.761C389.814 405.847 389.669 405.948 389.559 406.055C389.431 406.158 389.32 406.265 389.192 406.369C389.054 406.434 388.958 406.562 388.815 406.645C388.715 406.699 388.646 406.777 388.563 406.835C388.501 406.878 388.424 406.9 388.362 406.943C388.181 407.037 388.001 407.131 387.835 407.246C387.675 407.326 387.526 407.444 387.381 407.544C387.215 407.659 387.041 407.718 386.86 407.812C386.68 407.906 386.499 408 386.315 408.112C386.163 408.247 385.951 408.318 385.771 408.412C385.59 408.506 385.392 408.597 385.208 408.708C385.052 408.77 384.938 408.895 384.81 408.998C384.694 409.14 384.548 409.241 384.403 409.341C384.258 409.442 384.144 409.566 384.013 409.688C383.882 409.809 383.768 409.933 383.669 410.078C383.57 410.223 383.439 410.345 383.322 410.487C383.209 410.611 383.078 410.732 382.947 410.854L382.544 411.27C382.389 411.423 382.254 411.562 382.099 411.715C381.948 411.85 381.81 412.007 381.655 412.16C381.524 412.281 381.411 412.406 381.279 412.527C381.145 412.666 380.979 412.78 380.83 412.898C380.629 413.007 380.428 413.115 380.23 413.206C380.038 413.262 379.904 413.401 379.741 413.498C379.56 413.592 379.366 413.665 379.174 413.721C378.944 413.788 378.682 413.831 378.438 413.877C378.197 413.906 377.952 413.952 377.708 413.998C377.432 414.02 377.185 414.084 376.916 414.162C376.745 414.204 376.575 414.245 376.4 414.304C376.209 414.36 376.028 414.454 375.857 414.495C375.631 414.545 375.45 414.639 375.252 414.73C375.009 414.867 374.765 414.913 374.543 415.036C374.307 415.138 374.085 415.261 373.894 415.407C373.711 415.519 373.516 415.592 373.335 415.686C373.158 415.763 372.992 415.878 372.826 415.993C372.663 416.09 372.532 416.211 372.39 416.294C372.254 416.342 372.118 416.39 371.979 416.455L372.206 415.317C372.324 415.266 372.477 415.222 372.599 415.153C372.744 415.053 372.886 414.97 373.032 414.869C373.198 414.754 373.364 414.64 373.562 414.549C373.739 414.472 373.917 414.396 374.083 414.281C374.308 414.141 374.53 414.018 374.752 413.895C374.988 413.793 375.233 413.747 375.458 413.606C375.656 413.516 375.872 413.428 376.081 413.375C376.273 413.319 376.453 413.225 376.624 413.184C376.798 413.125 376.986 413.087 377.157 413.045C377.426 412.967 377.687 412.924 377.949 412.881C378.193 412.835 378.441 412.771 378.679 412.76C378.941 412.717 379.185 412.671 379.418 412.587C379.592 412.528 379.784 412.472 379.947 412.375C380.095 412.257 380.262 412.142 380.439 412.065C380.654 411.978 380.853 411.887 381.022 411.754C381.171 411.636 381.334 411.539 381.45 411.397C381.581 411.276 381.716 411.137 381.829 411.013C381.981 410.877 382.136 410.724 382.273 410.568C382.425 410.432 382.58 410.279 382.718 410.123C382.852 409.984 383.001 409.866 383.135 409.727C383.248 409.603 383.383 409.464 383.496 409.339C383.61 409.215 383.726 409.073 383.826 408.928C383.942 408.786 384.073 408.665 384.184 408.558C384.315 408.437 384.446 408.315 384.594 408.197C384.74 408.097 384.871 407.976 385.002 407.854C385.13 407.751 385.258 407.647 385.417 407.567C385.615 407.476 385.796 407.382 385.98 407.271C386.174 407.197 386.355 407.103 386.542 406.974C386.705 406.877 386.889 406.765 387.083 406.692C387.246 406.595 387.424 406.518 387.59 406.403C387.735 406.303 387.881 406.202 388.044 406.105C388.21 405.99 388.39 405.896 388.571 405.802C388.731 405.722 388.862 405.601 389.024 405.504C389.135 405.397 389.259 405.311 389.384 405.225C389.512 405.121 389.625 404.997 389.75 404.91C389.878 404.807 390.002 404.721 390.127 404.635C390.276 404.517 390.435 404.437 390.598 404.34C390.744 404.239 390.881 404.083 391.03 403.965C391.182 403.829 391.348 403.714 391.497 403.596C391.693 403.414 391.89 403.233 392.101 403.072L391.888 404.23Z" fill="#FFFAFA" stroke="#120002" stroke-width="5.16763" stroke-linejoin="round"/>
<path d="M409.072 392.903C408.834 393.113 408.592 393.341 408.404 393.579C408.335 393.657 408.284 393.739 408.233 393.82C407.863 394.351 407.508 394.903 407.124 395.414C407.049 395.527 406.977 395.623 406.902 395.736C406.772 395.948 406.561 396.309 406.431 396.521C406.121 397.027 405.831 397.518 405.539 398.027C404.817 399.293 404.162 400.588 403.441 401.853C402.952 402.835 402.383 403.765 401.863 404.722C401.621 405.15 401.397 405.581 401.159 405.991C400.791 406.613 400.486 407.283 400.136 407.908C401.42 405.258 400.69 406.667 400.483 407.301C400.422 407.435 400.363 407.66 400.334 407.817C400.263 408.004 400.246 408.201 400.21 408.394L399.247 409.887C399.283 409.694 399.321 409.483 399.377 409.276C399.483 408.896 399.417 409.156 399.53 408.741C399.546 408.653 399.562 408.566 399.595 408.481C399.629 408.397 399.66 408.33 399.711 408.248C400.257 406.951 398.1 411.691 400.627 406.22C400.932 405.641 401.256 405.065 401.593 404.51C402.369 403.146 403.125 401.796 403.869 400.408C404.594 399.125 405.269 397.815 405.997 396.515C406.511 395.592 407.024 394.67 407.619 393.799C408.01 393.253 408.362 392.719 408.734 392.17C408.803 392.092 408.858 391.993 408.926 391.915C409.139 391.645 409.419 391.406 409.628 391.154L409.072 392.903Z" fill="#FFFAFA" stroke="#120002" stroke-width="5.16763" stroke-linejoin="round"/>
<path d="M414.151 398.346C413.913 398.556 413.675 398.767 413.483 399.022C413.417 399.083 413.363 399.181 413.312 399.263C412.942 399.794 412.59 400.329 412.203 400.857C412.131 400.952 412.056 401.066 411.984 401.161C411.837 401.37 411.623 401.749 411.51 401.964C411.203 402.452 410.914 402.944 410.621 403.453C409.899 404.718 409.244 406.013 408.523 407.279C408.017 408.257 407.465 409.19 406.945 410.147C406.703 410.575 406.479 411.006 406.238 411.433C405.87 412.056 405.569 412.708 405.218 413.334C406.484 410.68 405.769 412.11 405.548 412.723C405.501 412.877 405.442 413.102 405.399 413.24C405.346 413.429 405.31 413.623 405.293 413.819L404.326 415.33C404.365 415.119 404.403 414.908 404.46 414.701C404.565 414.321 404.5 414.581 404.609 414.184C404.625 414.096 404.644 413.991 404.678 413.906C404.708 413.839 404.742 413.755 404.772 413.688C405.339 412.376 403.182 417.117 405.709 411.645C406.015 411.066 406.338 410.49 406.675 409.935C407.448 408.588 408.207 407.221 408.948 405.85C409.676 404.55 410.334 403.237 411.076 401.957C411.59 401.035 412.107 400.095 412.702 399.224C413.089 398.696 413.444 398.144 413.813 397.613C413.885 397.517 413.94 397.418 414.009 397.34C414.221 397.07 414.48 396.846 414.71 396.579L414.151 398.346Z" fill="#FFFAFA" stroke="#120002" stroke-width="5.16763" stroke-linejoin="round"/>
<path d="M418.847 403.301C418.627 403.515 418.406 403.729 418.2 403.963C418.152 404.027 418.101 404.108 418.05 404.19C417.701 404.707 417.352 405.224 416.989 405.72C416.914 405.833 416.842 405.929 416.77 406.025C416.64 406.237 416.432 406.58 416.303 406.792C416.034 407.269 415.748 407.743 415.476 408.237C414.781 409.453 414.136 410.696 413.442 411.912C412.963 412.841 412.435 413.742 411.921 414.664L411.259 415.904C410.897 416.491 410.599 417.126 410.27 417.737C411.499 415.186 410.797 416.545 410.596 417.144C410.553 417.281 410.494 417.506 410.45 417.643C410.401 417.816 410.365 418.009 410.333 418.184L409.412 419.649C409.45 419.438 409.485 419.245 409.538 419.055C409.644 418.675 409.564 418.915 409.67 418.535C409.704 418.45 409.72 418.363 409.753 418.278C409.784 418.211 409.814 418.144 409.848 418.06C410.388 416.797 408.298 421.369 410.751 416.102C411.033 415.554 411.353 414.996 411.669 414.455C412.415 413.158 413.143 411.858 413.857 410.537C414.558 409.286 415.188 408.022 415.886 406.789C416.393 405.901 416.886 404.994 417.475 404.158L418.521 402.607C418.59 402.529 418.644 402.43 418.713 402.352C418.923 402.1 419.181 401.875 419.391 401.623L418.847 403.301Z" fill="#FFFAFA" stroke="#120002" stroke-width="4.9677" stroke-linejoin="round"/>
<path d="M423.395 408.575C423.195 408.774 422.961 408.967 422.789 409.208C422.741 409.272 422.69 409.353 422.639 409.434C422.314 409.919 421.986 410.422 421.662 410.907C421.59 411.003 421.518 411.098 421.443 411.212C421.316 411.406 421.126 411.753 421.017 411.951C420.751 412.41 420.503 412.873 420.234 413.35C419.602 414.523 419.034 415.743 418.381 416.93C417.944 417.83 417.454 418.72 416.982 419.614C416.782 420.013 416.582 420.412 416.382 420.811C416.041 421.383 415.782 422.007 415.473 422.604C416.584 420.104 415.94 421.438 415.778 422.025C415.735 422.162 415.679 422.37 415.653 422.51C415.603 422.682 415.589 422.861 415.553 423.054L414.697 424.458C414.733 424.265 414.751 424.069 414.804 423.879C414.889 423.513 414.826 423.756 414.914 423.373C414.948 423.288 414.947 423.197 414.98 423.113L415.071 422.912C415.552 421.675 413.667 426.121 415.877 420.991C416.141 420.44 416.437 419.914 416.733 419.387C417.42 418.116 418.086 416.858 418.74 415.563C419.379 414.355 419.968 413.12 420.607 411.912C421.055 411.05 421.521 410.192 422.053 409.364C422.396 408.882 422.709 408.359 423.051 407.877C423.106 407.778 423.157 407.697 423.226 407.619C423.418 407.363 423.67 407.173 423.862 406.918L423.395 408.575Z" fill="#FFFAFA" stroke="#120002" stroke-width="5.16763" stroke-linejoin="round"/>
<path d="M428.495 414.003C428.295 414.202 428.078 414.399 427.892 414.619C427.841 414.7 427.79 414.782 427.742 414.845C427.414 415.348 427.104 415.854 426.762 416.336L426.546 416.623C426.419 416.817 426.229 417.164 426.12 417.361C425.851 417.838 425.603 418.301 425.338 418.761C424.702 419.951 424.134 421.172 423.498 422.362C423.044 423.259 422.557 424.131 422.085 425.025C421.885 425.424 421.685 425.823 421.485 426.222C421.141 426.812 420.885 427.418 420.576 428.015C421.684 425.532 421.043 426.849 420.878 427.453C420.838 427.573 420.779 427.798 420.753 427.938C420.703 428.111 420.689 428.289 420.657 428.465L419.797 429.887C419.833 429.694 419.854 429.48 419.907 429.29C419.992 428.924 419.929 429.167 420.014 428.801C420.048 428.717 420.064 428.629 420.08 428.541C420.111 428.474 420.144 428.39 420.175 428.323C420.655 427.086 418.767 431.549 420.977 426.419C421.241 425.869 421.537 425.342 421.833 424.816C422.52 423.544 423.189 422.269 423.84 420.991C424.479 419.783 425.068 418.548 425.707 417.341C426.155 416.479 426.624 415.603 427.153 414.792C427.499 414.293 427.809 413.787 428.155 413.288C428.206 413.207 428.257 413.125 428.326 413.047C428.517 412.792 428.773 412.584 428.979 412.35L428.495 414.003Z" fill="#FFFAFA" stroke="#120002" stroke-width="5.16763" stroke-linejoin="round"/>
<path d="M433.665 418.555C433.451 418.734 433.233 418.93 433.045 419.168C432.997 419.231 432.945 419.313 432.894 419.394C432.566 419.897 432.259 420.385 431.917 420.867C431.842 420.98 431.77 421.076 431.715 421.175C431.589 421.369 431.398 421.716 431.272 421.91C431.024 422.373 430.758 422.832 430.507 423.313C429.857 424.482 429.289 425.703 428.654 426.893C428.213 427.811 427.709 428.68 427.255 429.577C427.037 429.973 426.837 430.371 426.637 430.77C426.314 431.346 426.037 431.967 425.745 432.567C426.839 430.063 426.196 431.397 426.034 431.985C425.99 432.122 425.952 432.332 425.908 432.47C425.859 432.642 425.841 432.838 425.826 433.017L424.97 434.421C424.988 434.225 425.006 434.029 425.059 433.839C425.144 433.473 425.081 433.716 425.187 433.336L425.235 433.073L425.327 432.872C425.807 431.635 423.937 436.101 426.132 430.95C426.414 430.403 426.692 429.873 426.989 429.347C427.672 428.093 428.341 426.818 428.995 425.522C429.634 424.315 430.223 423.08 430.859 421.889C431.328 421.013 431.776 420.152 432.323 419.344L433.307 417.837C433.358 417.755 433.43 417.66 433.481 417.578C433.687 417.344 433.925 417.133 434.135 416.881L433.665 418.555Z" fill="#FFFAFA" stroke="#120002" stroke-width="5.16763" stroke-linejoin="round"/>
<path d="M438.583 424.477C438.387 424.658 438.173 424.837 438.025 425.046C437.96 425.107 437.926 425.191 437.878 425.255C437.574 425.726 437.288 426.2 436.984 426.67C436.915 426.748 436.843 426.844 436.789 426.943C436.683 427.123 436.496 427.452 436.408 427.636C436.163 428.081 435.922 428.508 435.694 428.957C435.124 430.086 434.604 431.243 434.037 432.355C433.642 433.227 433.183 434.05 432.773 434.9C432.593 435.285 432.397 435.666 432.221 436.033C431.918 436.595 431.686 437.169 431.418 437.737C432.399 435.358 431.821 436.631 431.683 437.187C431.639 437.324 431.601 437.535 431.578 437.657C431.546 437.833 431.531 438.012 431.499 438.187L430.73 439.516C430.747 439.32 430.765 439.124 430.797 438.948C430.879 438.6 430.82 438.825 430.902 438.478L430.947 438.232C430.977 438.165 431.008 438.098 431.021 438.028C431.453 436.855 429.789 441.086 431.754 436.202C431.994 435.684 432.249 435.186 432.521 434.691C433.124 433.477 433.742 432.283 434.311 431.063C434.901 429.919 435.425 428.744 435.998 427.597C436.401 426.782 436.825 425.952 437.31 425.188C437.632 424.72 437.918 424.246 438.222 423.776C438.273 423.694 438.324 423.613 438.393 423.535C438.564 423.294 438.796 423.119 438.985 422.881L438.583 424.477Z" fill="#FFFAFA" stroke="#120002" stroke-width="5.16763" stroke-linejoin="round"/>
<path d="M443.704 429.891C443.507 430.072 443.293 430.251 443.129 430.457C443.077 430.538 443.047 430.605 442.999 430.669C442.695 431.14 442.409 431.614 442.087 432.081C442.036 432.162 441.964 432.258 441.909 432.357C441.786 432.534 441.617 432.866 441.529 433.05C441.284 433.495 441.039 433.94 440.815 434.371C440.245 435.5 439.725 436.657 439.155 437.787C438.763 438.641 438.303 439.464 437.893 440.314C437.697 440.696 437.517 441.08 437.341 441.447C437.039 442.009 436.806 442.583 436.539 443.151C437.516 440.79 436.941 442.045 436.8 442.618C436.76 442.738 436.721 442.949 436.699 443.072C436.667 443.247 436.634 443.423 436.62 443.601L435.85 444.93C435.868 444.734 435.883 444.555 435.918 444.362C436 444.014 435.941 444.239 436.022 443.892L436.067 443.646C436.098 443.579 436.128 443.512 436.141 443.442C436.574 442.269 434.909 446.5 436.857 441.613C437.115 441.098 437.352 440.597 437.641 440.105C438.245 438.891 438.863 437.697 439.431 436.477C440.022 435.333 440.545 434.158 441.118 433.011C441.522 432.196 441.946 431.366 442.431 430.602C442.752 430.134 443.039 429.661 443.343 429.19L443.496 428.946C443.682 428.726 443.917 428.533 444.105 428.295L443.704 429.891Z" fill="#FFFAFA" stroke="#120002" stroke-width="5.16763" stroke-linejoin="round"/>
<path d="M448.853 434.457C448.639 434.636 448.442 434.818 448.274 435.041C448.226 435.105 448.178 435.169 448.127 435.25C447.844 435.706 447.558 436.18 447.236 436.648C447.182 436.747 447.113 436.825 447.058 436.924C446.935 437.101 446.766 437.433 446.66 437.613C446.433 438.061 446.188 438.506 445.964 438.937C445.376 440.064 444.874 441.224 444.286 442.35C443.894 443.204 443.452 444.03 443.042 444.881C442.845 445.262 442.666 445.647 442.487 446.031C442.188 446.575 441.952 447.167 441.67 447.715C442.647 445.353 442.09 446.612 441.931 447.182L441.848 447.638C441.798 447.81 441.783 447.989 441.769 448.168L440.999 449.497C441.017 449.301 441.014 449.119 441.067 448.929L441.154 448.455C441.187 448.37 441.186 448.279 441.216 448.212C441.229 448.142 441.26 448.075 441.29 448.008C441.723 446.835 440.055 451.084 442.006 446.179C442.246 445.661 442.501 445.163 442.773 444.668C443.391 443.475 443.994 442.261 444.58 441.043C445.153 439.896 445.677 438.722 446.267 437.578C446.671 436.762 447.077 435.929 447.58 435.168C447.884 434.698 448.17 434.224 448.474 433.753C448.543 433.675 448.594 433.594 448.645 433.512C448.83 433.292 449.048 433.096 449.237 432.858L448.853 434.457Z" fill="#FFFAFA" stroke="#120002" stroke-width="5.16763" stroke-linejoin="round"/>
<path d="M453.624 439.499C453.428 439.681 453.231 439.863 453.063 440.086C453.015 440.15 452.967 440.214 452.916 440.295C452.63 440.769 452.326 441.24 452.025 441.693C451.953 441.789 451.902 441.87 451.83 441.966C451.721 442.163 451.555 442.478 451.449 442.658C451.204 443.103 450.977 443.552 450.75 444C450.165 445.109 449.645 446.266 449.075 447.395C448.683 448.249 448.238 449.093 447.811 449.94C447.635 450.307 447.455 450.692 447.258 451.073C446.959 451.617 446.724 452.209 446.456 452.777C447.436 450.398 446.862 451.654 446.72 452.227C446.68 452.346 446.642 452.557 446.619 452.68C446.587 452.856 446.573 453.034 446.558 453.213L445.771 454.539C445.785 454.36 445.803 454.164 445.856 453.974L445.943 453.5L445.988 453.254L446.079 453.053C446.494 451.877 444.844 456.13 446.795 451.225C447.032 450.724 447.29 450.208 447.562 449.714C448.18 448.52 448.783 447.306 449.369 446.088C449.942 444.941 450.466 443.767 451.039 442.62C451.46 441.807 451.863 440.992 452.369 440.214C452.673 439.743 452.959 439.269 453.263 438.798C453.314 438.717 453.365 438.636 453.434 438.557C453.602 438.334 453.837 438.141 454.022 437.921L453.624 439.499Z" fill="#FFFAFA" stroke="#120002" stroke-width="5.16763" stroke-linejoin="round"/>
<path d="M458.745 444.913C458.548 445.095 458.352 445.277 458.184 445.5C458.136 445.564 458.085 445.645 458.037 445.709C457.75 446.183 457.446 446.654 457.146 447.107C457.074 447.203 457.002 447.298 456.951 447.38C456.842 447.578 456.675 447.892 456.566 448.09C456.325 448.517 456.098 448.966 455.87 449.414C455.286 450.523 454.766 451.68 454.196 452.809C453.8 453.681 453.341 454.504 452.931 455.354C452.755 455.721 452.576 456.106 452.379 456.487C452.08 457.031 451.844 457.623 451.577 458.191C452.557 455.812 451.982 457.068 451.841 457.641C451.801 457.761 451.762 457.971 451.737 458.112C451.708 458.27 451.693 458.448 451.679 458.627L450.891 459.953C450.906 459.774 450.924 459.578 450.974 459.406L451.064 458.914L451.109 458.668L451.2 458.467C451.615 457.291 449.947 461.54 451.913 456.656C452.153 456.138 452.411 455.622 452.683 455.128C453.283 453.931 453.904 452.72 454.472 451.499C455.063 450.355 455.586 449.181 456.156 448.051C456.58 447.222 456.984 446.406 457.469 445.642C457.79 445.174 458.08 444.683 458.384 444.212C458.435 444.131 458.486 444.05 458.552 443.989C458.723 443.748 458.958 443.555 459.143 443.335L458.745 444.913Z" fill="#FFFAFA" stroke="#120002" stroke-width="5.16763" stroke-linejoin="round"/>
<path d="M479.323 475.854C479.031 475.565 478.725 475.256 478.433 474.967C478.188 474.722 477.942 474.478 477.679 474.231C477.327 473.876 476.992 473.525 476.64 473.171C476.316 472.858 476.01 472.548 475.686 472.235C475.317 471.878 474.968 471.506 474.598 471.148C474.231 470.773 473.879 470.419 473.509 470.061C473.189 469.731 472.851 469.397 472.513 469.063C472.207 468.754 471.883 468.441 471.577 468.131C471.178 467.732 470.78 467.333 470.367 466.913C470.061 466.603 469.737 466.29 469.414 465.978C469.14 465.692 468.848 465.403 468.574 465.117C468.282 464.828 467.99 464.539 467.681 464.247C467.453 464.006 467.207 463.762 466.962 463.518C466.748 463.297 466.517 463.074 466.304 462.853C466.104 462.654 465.888 462.451 465.674 462.231C465.443 462.007 465.229 461.787 465.001 461.546C464.724 461.278 464.446 461.01 464.172 460.724C463.959 460.504 463.724 460.298 463.511 460.077C463.283 459.836 463.034 459.61 462.806 459.369C462.621 459.19 462.436 459.011 462.269 458.835C462.084 458.657 461.917 458.481 461.749 458.305C461.593 458.168 461.458 458.017 461.301 457.879C461.134 457.704 460.949 457.525 460.782 457.349C460.614 457.174 460.444 457.016 460.276 456.84C460.077 456.64 459.892 456.462 459.707 456.283C459.54 456.107 459.355 455.929 459.188 455.753C458.974 455.533 458.775 455.333 458.561 455.113C458.465 455.041 458.39 454.955 458.298 454.865L457.779 454.136L458.056 454.404C458.252 454.621 458.451 454.821 458.651 455.02C458.836 455.199 459.003 455.375 459.188 455.553C459.373 455.732 459.554 455.929 459.739 456.107C459.924 456.286 460.095 456.444 460.262 456.62C460.43 456.795 460.615 456.974 460.782 457.15C460.938 457.287 461.074 457.439 461.23 457.576L461.732 458.103L462.287 458.639C462.515 458.88 462.76 459.125 462.991 459.348C463.205 459.568 463.436 459.792 463.65 460.012C463.927 460.28 464.201 460.566 464.479 460.834C464.71 461.058 464.923 461.278 465.151 461.519C465.368 461.722 465.564 461.939 465.781 462.142C465.995 462.362 466.226 462.585 466.439 462.806C466.688 463.032 466.934 463.277 467.179 463.521C467.468 463.827 467.759 464.116 468.051 464.405C468.325 464.691 468.62 464.962 468.894 465.248C469.215 465.579 469.538 465.891 469.859 466.222C470.257 466.621 470.656 467.02 471.054 467.419C471.378 467.732 471.684 468.042 472.008 468.355C472.328 468.685 472.666 469.019 473.004 469.352C473.356 469.707 473.723 470.082 474.093 470.44C474.445 470.794 474.815 471.151 475.181 471.527C475.487 471.836 475.811 472.149 476.131 472.48C476.469 472.813 476.807 473.147 477.16 473.501C477.405 473.746 477.651 473.99 477.896 474.234C478.205 474.526 478.494 474.833 478.786 475.122L479.323 475.854Z" fill="#120002" stroke="#120002" stroke-width="3.84647" stroke-linejoin="round"/>
<path d="M452.515 461.286C462.877 479.48 465.883 481.587 471.084 478.545C473.155 477.344 477.712 475.145 474.791 471.384L478.482 475.394L463.713 482.933C457.498 475.67 456.569 471.039 452.515 461.286Z" fill="#FFFAFA" stroke="#120002" stroke-width="2.52466" stroke-linejoin="round"/>
<path d="M195.906 380.686L214.386 399.175C220.141 387.516 223.852 384.899 233.355 380.229L443.297 170.958C465.838 148.441 474.489 137.741 482.157 113.654C458.618 121.117 448.229 129.068 424.813 152.452L214.874 361.741C210.368 370.905 208.238 374.631 195.906 380.686Z" fill="#FFFAFA" stroke="#120002" stroke-width="5.16763" stroke-linejoin="round"/>
<path fill-rule="evenodd" clip-rule="evenodd" d="M482.214 114.076L233.371 362.611L482.214 114.076Z" fill="#FFFAFA"/>
<path d="M482.214 114.076L233.371 362.611" stroke="#120002" stroke-width="5.16763"/>
<path d="M112.854 461.191C112.562 467.121 119.642 474.773 120.32 475.502C121.004 476.266 128.482 482.92 134.507 482.439C139.411 480.983 146.943 462.888 148.33 458.971C140.397 455.773 139.945 455.584 136.43 447.59C133.087 448.653 114.91 455.284 112.854 461.191Z" fill="#FFFAFA" stroke="#120002" stroke-width="5.16763" stroke-linejoin="round"/>
<path fill-rule="evenodd" clip-rule="evenodd" d="M193.154 387.223C201.471 390.732 206.614 398.011 206.565 403.19L148.494 459.405C141.539 458.079 137.449 453.183 136.022 447.276L193.154 387.223Z" fill="#FFFAFA" stroke="#120002" stroke-width="4.9568"/>
<path fill-rule="evenodd" clip-rule="evenodd" d="M220.801 355.693C224.606 358.737 229.684 362.292 233.652 362.367C233.864 366.591 236.893 370.845 239.393 374.29" fill="#FFFAFA"/>
<path d="M220.801 355.693C224.606 358.737 229.684 362.292 233.652 362.367C233.864 366.591 236.893 370.845 239.393 374.29" stroke="#120002" stroke-width="5.16763"/>
<path d="M194.083 388.171C202.598 391.771 205.076 394.403 208.541 402.823C219.534 413.807 248.048 423.884 248.913 420.879L249.031 404.696C232.058 408.297 212.26 401.039 213.317 383.542C196.439 384.695 188.584 364.995 189.973 345.642L173.999 347.174C171.842 347.875 183.284 377.351 194.083 388.171ZM173.681 347.322C176.978 369.177 182.507 380.341 190.864 388.722L173.681 347.322ZM247.173 421.486C225.338 418.155 214.162 412.609 205.791 404.249L247.173 421.486Z" fill="#FFFAFA"/>
<path d="M173.681 347.322C176.978 369.177 182.507 380.341 190.864 388.722M247.173 421.486C225.338 418.155 214.162 412.609 205.791 404.249M194.083 388.171C202.598 391.771 205.076 394.403 208.541 402.823C219.534 413.807 248.048 423.884 248.913 420.879L249.031 404.696C232.058 408.297 212.26 401.039 213.317 383.542C196.439 384.695 188.584 364.995 189.973 345.642L173.999 347.174C171.842 347.875 183.284 377.351 194.083 388.171Z" stroke="#120002" stroke-width="5.16763" stroke-linejoin="round"/>
<path d="M191.512 386.191C191.239 385.986 191.062 385.71 190.866 385.438C190.663 385.221 190.545 384.97 190.388 384.708C190.217 384.468 190.017 384.268 189.814 384.051C189.587 383.802 189.346 383.574 189.104 383.346C188.857 383.083 188.612 382.837 188.321 382.636C188.01 382.421 187.727 382.164 187.461 381.904C187.199 381.662 186.891 381.464 186.614 381.242C186.344 381.056 186.167 380.779 185.975 380.524C185.812 380.227 185.698 379.904 185.503 379.631C185.287 379.344 185.187 378.999 185.106 378.651C184.977 378.348 184.864 378.024 184.718 377.724C184.526 377.469 184.384 377.186 184.212 376.945C184.102 376.639 183.942 376.36 183.796 376.06C183.75 375.905 183.636 375.781 183.555 375.632C183.476 375.501 183.433 375.364 183.355 375.233C183.145 374.981 182.982 374.685 182.787 374.412C182.542 374.166 182.431 373.86 182.286 373.56C182.134 373.225 181.932 372.917 181.745 372.588C181.582 372.291 181.436 371.991 181.223 371.722C181.086 371.366 180.969 371.024 180.778 370.678C180.621 370.416 180.5 370.148 180.308 369.893C180.224 369.636 180.028 369.454 179.98 369.191C179.925 368.893 179.708 368.696 179.589 368.446C179.426 368.149 179.301 367.864 179.155 367.564C178.734 365.663 181.089 375.048 179.033 367.096C178.855 366.421 179.41 368.46 179.592 369.153C179.625 369.238 179.553 368.942 179.516 368.84C179.527 368.802 179.518 368.749 179.508 368.697C179.293 367.919 179.096 367.139 178.881 366.362C178.871 366.309 178.829 366.281 178.82 366.228C178.759 366.094 178.698 365.96 178.672 365.82C178.648 365.788 178.605 365.65 178.632 365.7C178.814 366.392 178.998 367.103 179.197 367.792L179.175 367.669C179.062 367.254 178.77 365.856 178.443 365.063C179.94 370.559 178.411 364.888 178.395 364.8C178.355 364.68 178.216 364.415 178.14 364.302C178.062 364.171 178.019 364.034 177.975 363.897L178.236 366.208C178.296 366.342 178.375 366.472 178.432 366.589C178.493 366.723 178.554 366.857 178.597 366.994C178.621 367.026 178.647 367.166 178.637 367.114C178.066 364.987 177.667 363.5 178.703 367.374C178.774 367.561 178.79 367.648 178.79 367.648C177.62 363.145 178.544 366.804 178.915 368.133C178.976 368.268 179.037 368.402 179.08 368.539C179.104 368.571 179.13 368.711 179.12 368.658C178.55 366.44 178.43 365.882 178.602 366.721C178.68 367.542 179.244 369.234 179.293 369.407C179.472 370.082 178.557 366.675 178.753 367.347C179.457 369.903 179.049 368.962 179.433 369.871C179.575 370.154 179.721 370.454 179.881 370.733C180.035 370.977 180.171 371.224 180.24 371.502C180.355 371.735 180.488 371.965 180.638 372.191C180.795 372.453 180.917 372.721 181.073 372.982C181.243 373.314 181.331 373.697 181.55 374.002C181.731 374.296 181.877 374.596 182.037 374.875C182.224 375.204 182.426 375.511 182.581 375.864C182.727 376.164 182.887 376.443 183.096 376.695C183.295 376.986 183.472 377.262 183.65 377.538C183.792 377.82 183.949 378.082 184.091 378.364C184.234 378.647 184.348 378.971 184.525 379.247C184.696 379.487 184.853 379.749 184.992 380.014C185.124 380.335 185.252 380.638 185.345 380.947C185.462 381.289 185.596 381.627 185.812 381.914C185.976 382.211 186.093 382.553 186.305 382.822C186.5 383.095 186.724 383.326 186.997 383.53C187.271 383.735 187.579 383.932 187.824 384.178C188.107 384.435 188.407 384.689 188.722 384.921C188.995 385.126 189.222 385.374 189.467 385.62C189.708 385.848 189.935 386.097 190.18 386.343C190.362 386.545 190.547 386.766 190.701 387.01C190.84 387.274 191.026 387.495 191.194 387.718C191.41 388.005 191.637 388.254 191.881 388.5L191.512 386.191Z" fill="#FFFAFA" stroke="#120002" stroke-width="5.16763" stroke-linejoin="round"/>
<path d="M207.112 404.23C207.319 404.374 207.495 404.541 207.671 404.708C207.84 404.841 208.01 404.973 208.162 405.109C208.31 405.227 208.448 405.383 208.611 405.48C208.77 405.56 208.916 405.661 209.061 405.761C209.186 405.847 209.331 405.948 209.441 406.055C209.569 406.158 209.68 406.265 209.808 406.369C209.946 406.434 210.042 406.562 210.185 406.645C210.285 406.699 210.354 406.777 210.437 406.835C210.499 406.878 210.576 406.9 210.638 406.943C210.819 407.037 210.999 407.131 211.165 407.246C211.325 407.326 211.474 407.444 211.619 407.544C211.785 407.659 211.959 407.718 212.14 407.812C212.32 407.906 212.501 408 212.685 408.112C212.837 408.247 213.049 408.318 213.229 408.412C213.41 408.506 213.608 408.597 213.792 408.708C213.948 408.77 214.062 408.895 214.19 408.998C214.306 409.14 214.452 409.241 214.597 409.341C214.742 409.442 214.856 409.566 214.987 409.688C215.118 409.809 215.232 409.933 215.331 410.078C215.43 410.223 215.561 410.345 215.678 410.487C215.791 410.611 215.922 410.732 216.053 410.854L216.456 411.27C216.611 411.423 216.746 411.562 216.901 411.715C217.052 411.85 217.19 412.007 217.345 412.16C217.476 412.281 217.589 412.406 217.721 412.527C217.855 412.666 218.021 412.78 218.17 412.898C218.371 413.007 218.572 413.115 218.77 413.206C218.962 413.262 219.096 413.401 219.259 413.498C219.44 413.592 219.634 413.665 219.826 413.721C220.056 413.788 220.318 413.831 220.562 413.877C220.803 413.906 221.048 413.952 221.292 413.998C221.568 414.02 221.815 414.084 222.084 414.162C222.255 414.204 222.425 414.245 222.6 414.304C222.791 414.36 222.972 414.454 223.143 414.495C223.369 414.545 223.55 414.639 223.748 414.73C223.991 414.867 224.235 414.913 224.457 415.036C224.693 415.138 224.915 415.261 225.106 415.407C225.289 415.519 225.484 415.592 225.665 415.686C225.842 415.763 226.008 415.878 226.174 415.993C226.337 416.09 226.468 416.211 226.61 416.294C226.746 416.342 226.882 416.39 227.021 416.455L226.794 415.317C226.676 415.266 226.523 415.222 226.401 415.153C226.256 415.053 226.114 414.97 225.968 414.869C225.802 414.754 225.636 414.64 225.438 414.549C225.261 414.472 225.083 414.396 224.917 414.281C224.692 414.141 224.47 414.018 224.248 413.895C224.012 413.793 223.767 413.747 223.542 413.606C223.344 413.516 223.128 413.428 222.919 413.375C222.727 413.319 222.547 413.225 222.376 413.184C222.202 413.125 222.014 413.087 221.843 413.045C221.574 412.967 221.313 412.924 221.051 412.881C220.807 412.835 220.559 412.771 220.321 412.76C220.059 412.717 219.815 412.671 219.582 412.587C219.408 412.528 219.216 412.472 219.053 412.375C218.905 412.257 218.738 412.142 218.561 412.065C218.346 411.978 218.147 411.887 217.978 411.754C217.829 411.636 217.666 411.539 217.55 411.397C217.419 411.276 217.284 411.137 217.171 411.013C217.019 410.877 216.864 410.724 216.727 410.568C216.575 410.432 216.42 410.279 216.282 410.123C216.148 409.984 215.999 409.866 215.865 409.727C215.752 409.603 215.617 409.464 215.504 409.339C215.39 409.215 215.274 409.073 215.174 408.928C215.058 408.786 214.927 408.665 214.816 408.558C214.685 408.437 214.554 408.315 214.406 408.197C214.26 408.097 214.129 407.976 213.998 407.854C213.87 407.751 213.742 407.647 213.583 407.567C213.385 407.476 213.204 407.382 213.02 407.271C212.826 407.197 212.645 407.103 212.458 406.974C212.295 406.877 212.111 406.765 211.917 406.692C211.754 406.595 211.576 406.518 211.41 406.403C211.265 406.303 211.119 406.202 210.956 406.105C210.79 405.99 210.61 405.896 210.429 405.802C210.269 405.722 210.138 405.601 209.976 405.504C209.865 405.397 209.741 405.311 209.616 405.225C209.488 405.121 209.375 404.997 209.25 404.91C209.122 404.807 208.998 404.721 208.873 404.635C208.724 404.517 208.565 404.437 208.402 404.34C208.256 404.239 208.119 404.083 207.97 403.965C207.818 403.829 207.652 403.714 207.503 403.596C207.307 403.414 207.11 403.233 206.899 403.072L207.112 404.23Z" fill="#FFFAFA" stroke="#120002" stroke-width="5.16763" stroke-linejoin="round"/>
<path d="M189.928 392.903C190.166 393.113 190.408 393.341 190.596 393.579C190.665 393.657 190.716 393.739 190.767 393.82C191.137 394.351 191.492 394.903 191.876 395.414C191.951 395.527 192.023 395.623 192.098 395.736C192.228 395.948 192.439 396.309 192.569 396.521C192.879 397.027 193.169 397.518 193.461 398.027C194.183 399.293 194.838 400.588 195.559 401.853C196.048 402.835 196.617 403.765 197.137 404.722C197.379 405.15 197.603 405.581 197.841 405.991C198.209 406.613 198.514 407.283 198.864 407.908C197.58 405.258 198.31 406.667 198.517 407.301C198.578 407.435 198.637 407.66 198.666 407.817C198.737 408.004 198.754 408.201 198.79 408.394L199.753 409.887C199.717 409.694 199.679 409.483 199.623 409.276C199.517 408.896 199.583 409.156 199.47 408.741C199.454 408.653 199.438 408.566 199.405 408.481C199.371 408.397 199.34 408.33 199.289 408.248C198.743 406.951 200.9 411.691 198.373 406.22C198.068 405.641 197.744 405.065 197.407 404.51C196.631 403.146 195.875 401.796 195.131 400.408C194.406 399.125 193.731 397.815 193.003 396.515C192.489 395.592 191.976 394.67 191.381 393.799C190.99 393.253 190.638 392.719 190.266 392.17C190.197 392.092 190.142 391.993 190.074 391.915C189.861 391.645 189.581 391.406 189.372 391.154L189.928 392.903Z" fill="#FFFAFA" stroke="#120002" stroke-width="5.16763" stroke-linejoin="round"/>
<path d="M184.849 398.346C185.087 398.556 185.325 398.767 185.517 399.022C185.583 399.083 185.637 399.181 185.688 399.263C186.058 399.794 186.41 400.329 186.797 400.857C186.869 400.952 186.944 401.066 187.016 401.161C187.163 401.37 187.377 401.749 187.49 401.964C187.797 402.452 188.086 402.944 188.379 403.453C189.101 404.718 189.756 406.013 190.477 407.279C190.983 408.257 191.535 409.19 192.055 410.147C192.297 410.575 192.521 411.006 192.762 411.433C193.13 412.056 193.431 412.708 193.782 413.334C192.516 410.68 193.231 412.11 193.452 412.723C193.499 412.877 193.558 413.102 193.601 413.24C193.654 413.429 193.69 413.623 193.707 413.819L194.674 415.33C194.635 415.119 194.597 414.908 194.54 414.701C194.435 414.321 194.5 414.581 194.391 414.184C194.375 414.096 194.356 413.991 194.322 413.906C194.292 413.839 194.258 413.755 194.228 413.688C193.661 412.376 195.818 417.117 193.291 411.645C192.985 411.066 192.662 410.49 192.325 409.935C191.552 408.588 190.793 407.221 190.052 405.85C189.324 404.55 188.666 403.237 187.924 401.957C187.41 401.035 186.893 400.095 186.298 399.224C185.911 398.696 185.556 398.144 185.187 397.613C185.115 397.517 185.06 397.418 184.991 397.34C184.779 397.07 184.52 396.846 184.29 396.579L184.849 398.346Z" fill="#FFFAFA" stroke="#120002" stroke-width="5.16763" stroke-linejoin="round"/>
<path d="M180.153 403.301C180.373 403.515 180.594 403.729 180.8 403.963C180.848 404.027 180.899 404.108 180.95 404.19C181.299 404.707 181.648 405.224 182.011 405.72C182.086 405.833 182.158 405.929 182.23 406.025C182.36 406.237 182.568 406.58 182.697 406.792C182.966 407.269 183.252 407.743 183.524 408.237C184.219 409.453 184.864 410.696 185.558 411.912C186.037 412.841 186.565 413.742 187.079 414.664L187.741 415.904C188.103 416.491 188.401 417.126 188.73 417.737C187.501 415.186 188.203 416.545 188.404 417.144C188.447 417.281 188.506 417.506 188.55 417.643C188.599 417.816 188.635 418.009 188.667 418.184L189.588 419.649C189.55 419.438 189.515 419.245 189.462 419.055C189.356 418.675 189.436 418.915 189.33 418.535C189.296 418.45 189.28 418.363 189.247 418.278C189.216 418.211 189.186 418.144 189.152 418.06C188.612 416.797 190.702 421.369 188.249 416.102C187.967 415.554 187.647 414.996 187.331 414.455C186.585 413.158 185.857 411.858 185.143 410.537C184.442 409.286 183.812 408.022 183.114 406.789C182.607 405.901 182.114 404.994 181.525 404.158L180.479 402.607C180.41 402.529 180.356 402.43 180.287 402.352C180.077 402.1 179.819 401.875 179.609 401.623L180.153 403.301Z" fill="#FFFAFA" stroke="#120002" stroke-width="4.9677" stroke-linejoin="round"/>
<path d="M175.605 408.575C175.805 408.774 176.039 408.967 176.211 409.208C176.259 409.272 176.31 409.353 176.361 409.434C176.686 409.919 177.014 410.422 177.338 410.907C177.41 411.003 177.482 411.098 177.557 411.212C177.684 411.406 177.874 411.753 177.983 411.951C178.249 412.41 178.497 412.873 178.766 413.35C179.398 414.523 179.966 415.743 180.619 416.93C181.056 417.83 181.546 418.72 182.018 419.614C182.218 420.013 182.418 420.412 182.618 420.811C182.959 421.383 183.218 422.007 183.527 422.604C182.416 420.104 183.06 421.438 183.222 422.025C183.265 422.162 183.321 422.37 183.347 422.51C183.397 422.682 183.411 422.861 183.447 423.054L184.303 424.458C184.267 424.265 184.249 424.069 184.196 423.879C184.111 423.513 184.174 423.756 184.086 423.373C184.052 423.288 184.053 423.197 184.02 423.113L183.929 422.912C183.448 421.675 185.333 426.121 183.123 420.991C182.859 420.44 182.563 419.914 182.267 419.387C181.58 418.116 180.914 416.858 180.26 415.563C179.621 414.355 179.032 413.12 178.393 411.912C177.945 411.05 177.479 410.192 176.947 409.364C176.604 408.882 176.291 408.359 175.949 407.877C175.894 407.778 175.843 407.697 175.774 407.619C175.582 407.363 175.33 407.173 175.138 406.918L175.605 408.575Z" fill="#FFFAFA" stroke="#120002" stroke-width="5.16763" stroke-linejoin="round"/>
<path d="M170.505 414.003C170.705 414.202 170.922 414.399 171.108 414.619C171.159 414.7 171.21 414.782 171.258 414.845C171.586 415.348 171.896 415.854 172.238 416.336L172.454 416.623C172.581 416.817 172.771 417.164 172.88 417.361C173.149 417.838 173.397 418.301 173.662 418.761C174.298 419.951 174.866 421.172 175.502 422.362C175.956 423.259 176.443 424.131 176.915 425.025C177.115 425.424 177.315 425.823 177.515 426.222C177.859 426.812 178.115 427.418 178.424 428.015C177.316 425.532 177.957 426.849 178.122 427.453C178.162 427.573 178.221 427.798 178.247 427.938C178.297 428.111 178.311 428.289 178.343 428.465L179.203 429.887C179.167 429.694 179.146 429.48 179.093 429.29C179.008 428.924 179.071 429.167 178.986 428.801C178.952 428.717 178.936 428.629 178.92 428.541C178.889 428.474 178.856 428.39 178.825 428.323C178.345 427.086 180.233 431.549 178.023 426.419C177.759 425.869 177.463 425.342 177.167 424.816C176.48 423.544 175.811 422.269 175.16 420.991C174.521 419.783 173.932 418.548 173.293 417.341C172.845 416.479 172.376 415.603 171.847 414.792C171.501 414.293 171.191 413.787 170.845 413.288C170.794 413.207 170.743 413.125 170.674 413.047C170.483 412.792 170.227 412.584 170.021 412.35L170.505 414.003Z" fill="#FFFAFA" stroke="#120002" stroke-width="5.16763" stroke-linejoin="round"/>
<path d="M165.335 418.555C165.549 418.734 165.767 418.93 165.955 419.168C166.003 419.231 166.055 419.313 166.106 419.394C166.434 419.897 166.741 420.385 167.083 420.867C167.158 420.98 167.23 421.076 167.285 421.175C167.411 421.369 167.602 421.716 167.728 421.91C167.976 422.373 168.242 422.832 168.493 423.313C169.143 424.482 169.711 425.703 170.346 426.893C170.787 427.811 171.291 428.68 171.745 429.577C171.963 429.973 172.163 430.371 172.363 430.77C172.686 431.346 172.963 431.967 173.255 432.567C172.161 430.063 172.804 431.397 172.966 431.985C173.01 432.122 173.048 432.332 173.092 432.47C173.141 432.642 173.159 432.838 173.174 433.017L174.03 434.421C174.012 434.225 173.994 434.029 173.941 433.839C173.856 433.473 173.919 433.716 173.813 433.336L173.765 433.073L173.673 432.872C173.193 431.635 175.063 436.101 172.868 430.95C172.586 430.403 172.308 429.873 172.011 429.347C171.328 428.093 170.659 426.818 170.005 425.522C169.366 424.315 168.777 423.08 168.141 421.889C167.672 421.013 167.224 420.152 166.677 419.344L165.693 417.837C165.642 417.755 165.57 417.66 165.519 417.578C165.313 417.344 165.075 417.133 164.865 416.881L165.335 418.555Z" fill="#FFFAFA" stroke="#120002" stroke-width="5.16763" stroke-linejoin="round"/>
<path d="M160.417 424.477C160.613 424.658 160.827 424.837 160.975 425.046C161.04 425.107 161.074 425.191 161.122 425.255C161.426 425.726 161.712 426.2 162.016 426.67C162.085 426.748 162.157 426.844 162.211 426.943C162.317 427.123 162.504 427.452 162.592 427.636C162.837 428.081 163.078 428.508 163.306 428.957C163.876 430.086 164.396 431.243 164.963 432.355C165.358 433.227 165.817 434.05 166.227 434.9C166.407 435.285 166.603 435.666 166.779 436.033C167.082 436.595 167.314 437.169 167.582 437.737C166.601 435.358 167.179 436.631 167.317 437.187C167.361 437.324 167.399 437.535 167.422 437.657C167.454 437.833 167.469 438.012 167.501 438.187L168.27 439.516C168.253 439.32 168.235 439.124 168.203 438.948C168.121 438.6 168.18 438.825 168.098 438.478L168.053 438.232C168.023 438.165 167.992 438.098 167.979 438.028C167.547 436.855 169.211 441.086 167.246 436.202C167.006 435.684 166.751 435.186 166.479 434.691C165.876 433.477 165.258 432.283 164.689 431.063C164.099 429.919 163.575 428.744 163.002 427.597C162.599 426.782 162.175 425.952 161.69 425.188C161.368 424.72 161.082 424.246 160.778 423.776C160.727 423.694 160.676 423.613 160.607 423.535C160.436 423.294 160.204 423.119 160.015 422.881L160.417 424.477Z" fill="#FFFAFA" stroke="#120002" stroke-width="5.16763" stroke-linejoin="round"/>
<path d="M155.296 429.891C155.493 430.072 155.707 430.251 155.871 430.457C155.923 430.538 155.953 430.605 156.001 430.669C156.305 431.14 156.591 431.614 156.913 432.081C156.964 432.162 157.036 432.258 157.091 432.357C157.214 432.534 157.383 432.866 157.471 433.05C157.716 433.495 157.961 433.94 158.185 434.371C158.755 435.5 159.275 436.657 159.845 437.787C160.237 438.641 160.697 439.464 161.107 440.314C161.303 440.696 161.483 441.08 161.659 441.447C161.961 442.009 162.194 442.583 162.461 443.151C161.484 440.79 162.059 442.045 162.2 442.618C162.24 442.738 162.279 442.949 162.301 443.072C162.333 443.247 162.366 443.423 162.38 443.601L163.15 444.93C163.132 444.734 163.117 444.555 163.082 444.362C163 444.014 163.059 444.239 162.978 443.892L162.933 443.646C162.902 443.579 162.872 443.512 162.859 443.442C162.426 442.269 164.091 446.5 162.143 441.613C161.885 441.098 161.648 440.597 161.359 440.105C160.755 438.891 160.137 437.697 159.569 436.477C158.978 435.333 158.455 434.158 157.882 433.011C157.478 432.196 157.054 431.366 156.569 430.602C156.248 430.134 155.961 429.661 155.657 429.19L155.504 428.946C155.318 428.726 155.083 428.533 154.895 428.295L155.296 429.891Z" fill="#FFFAFA" stroke="#120002" stroke-width="5.16763" stroke-linejoin="round"/>
<path d="M150.147 434.457C150.361 434.636 150.558 434.818 150.726 435.041C150.774 435.105 150.822 435.169 150.873 435.25C151.156 435.706 151.442 436.18 151.764 436.648C151.818 436.747 151.887 436.825 151.942 436.924C152.065 437.101 152.234 437.433 152.34 437.613C152.567 438.061 152.812 438.506 153.036 438.937C153.624 440.064 154.126 441.224 154.714 442.35C155.106 443.204 155.548 444.03 155.958 444.881C156.155 445.262 156.334 445.647 156.513 446.031C156.812 446.575 157.048 447.167 157.33 447.715C156.353 445.353 156.91 446.612 157.069 447.182L157.152 447.638C157.202 447.81 157.217 447.989 157.231 448.168L158.001 449.497C157.983 449.301 157.986 449.119 157.933 448.929L157.846 448.455C157.813 448.37 157.814 448.279 157.784 448.212C157.771 448.142 157.74 448.075 157.71 448.008C157.277 446.835 158.945 451.084 156.994 446.179C156.754 445.661 156.499 445.163 156.227 444.668C155.609 443.475 155.006 442.261 154.42 441.043C153.847 439.896 153.323 438.722 152.733 437.578C152.329 436.762 151.923 435.929 151.42 435.168C151.116 434.698 150.83 434.224 150.526 433.753C150.457 433.675 150.406 433.594 150.355 433.512C150.17 433.292 149.952 433.096 149.763 432.858L150.147 434.457Z" fill="#FFFAFA" stroke="#120002" stroke-width="5.16763" stroke-linejoin="round"/>
<path d="M145.376 439.499C145.572 439.681 145.769 439.863 145.937 440.086C145.985 440.15 146.033 440.214 146.084 440.295C146.37 440.769 146.674 441.24 146.975 441.693C147.047 441.789 147.098 441.87 147.17 441.966C147.279 442.163 147.445 442.478 147.551 442.658C147.796 443.103 148.023 443.552 148.25 444C148.835 445.109 149.355 446.266 149.925 447.395C150.317 448.249 150.762 449.093 151.189 449.94C151.365 450.307 151.545 450.692 151.742 451.073C152.041 451.617 152.276 452.209 152.544 452.777C151.564 450.398 152.138 451.654 152.28 452.227C152.32 452.346 152.358 452.557 152.381 452.68C152.413 452.856 152.427 453.034 152.442 453.213L153.229 454.539C153.215 454.36 153.197 454.164 153.144 453.974L153.057 453.5L153.012 453.254L152.921 453.053C152.506 451.877 154.156 456.13 152.205 451.225C151.968 450.724 151.71 450.208 151.438 449.714C150.82 448.52 150.217 447.306 149.631 446.088C149.058 444.941 148.534 443.767 147.961 442.62C147.54 441.807 147.137 440.992 146.631 440.214C146.327 439.743 146.041 439.269 145.737 438.798C145.686 438.717 145.635 438.636 145.566 438.557C145.398 438.334 145.163 438.141 144.978 437.921L145.376 439.499Z" fill="#FFFAFA" stroke="#120002" stroke-width="5.16763" stroke-linejoin="round"/>
<path d="M140.255 444.913C140.452 445.095 140.648 445.277 140.816 445.5C140.864 445.564 140.915 445.645 140.963 445.709C141.25 446.183 141.554 446.654 141.854 447.107C141.926 447.203 141.998 447.298 142.049 447.38C142.158 447.578 142.325 447.892 142.434 448.09C142.675 448.517 142.902 448.966 143.13 449.414C143.714 450.523 144.234 451.68 144.804 452.809C145.2 453.681 145.659 454.504 146.069 455.354C146.245 455.721 146.424 456.106 146.621 456.487C146.92 457.031 147.156 457.623 147.423 458.191C146.443 455.812 147.018 457.068 147.159 457.641C147.199 457.761 147.238 457.971 147.263 458.112C147.292 458.27 147.307 458.448 147.321 458.627L148.109 459.953C148.094 459.774 148.076 459.578 148.026 459.406L147.936 458.914L147.891 458.668L147.8 458.467C147.385 457.291 149.053 461.54 147.087 456.656C146.847 456.138 146.589 455.622 146.317 455.128C145.717 453.931 145.096 452.72 144.528 451.499C143.937 450.355 143.414 449.181 142.844 448.051C142.42 447.222 142.016 446.406 141.531 445.642C141.21 445.174 140.92 444.683 140.616 444.212C140.565 444.131 140.514 444.05 140.448 443.989C140.277 443.748 140.042 443.555 139.857 443.335L140.255 444.913Z" fill="#FFFAFA" stroke="#120002" stroke-width="5.16763" stroke-linejoin="round"/>
<path d="M119.677 475.854C119.969 475.565 120.275 475.256 120.567 474.967C120.812 474.722 121.058 474.478 121.321 474.231C121.673 473.876 122.008 473.525 122.36 473.171C122.684 472.858 122.99 472.548 123.314 472.235C123.683 471.878 124.032 471.506 124.402 471.148C124.769 470.773 125.121 470.419 125.491 470.061C125.811 469.731 126.149 469.397 126.487 469.063C126.793 468.754 127.117 468.441 127.423 468.131C127.822 467.732 128.22 467.333 128.633 466.913C128.939 466.603 129.263 466.29 129.586 465.978C129.86 465.692 130.152 465.403 130.426 465.117C130.718 464.828 131.01 464.539 131.319 464.247C131.547 464.006 131.793 463.762 132.038 463.518C132.252 463.297 132.483 463.074 132.696 462.853C132.896 462.654 133.112 462.451 133.326 462.231C133.557 462.007 133.771 461.787 133.999 461.546C134.276 461.278 134.554 461.01 134.828 460.724C135.041 460.504 135.276 460.298 135.489 460.077C135.717 459.836 135.966 459.61 136.194 459.369C136.379 459.19 136.564 459.011 136.731 458.835C136.916 458.657 137.083 458.481 137.251 458.305C137.407 458.168 137.542 458.017 137.699 457.879C137.866 457.704 138.051 457.525 138.218 457.349C138.386 457.174 138.556 457.016 138.724 456.84C138.923 456.64 139.108 456.462 139.293 456.283C139.46 456.107 139.645 455.929 139.812 455.753C140.026 455.533 140.225 455.333 140.439 455.113C140.535 455.041 140.61 454.955 140.702 454.865L141.221 454.136L140.944 454.404C140.748 454.621 140.549 454.821 140.349 455.02C140.164 455.199 139.997 455.375 139.812 455.553C139.627 455.732 139.446 455.929 139.261 456.107C139.076 456.286 138.905 456.444 138.738 456.62C138.57 456.795 138.385 456.974 138.218 457.15C138.062 457.287 137.926 457.439 137.77 457.576L137.268 458.103L136.713 458.639C136.485 458.88 136.24 459.125 136.009 459.348C135.795 459.568 135.564 459.792 135.35 460.012C135.073 460.28 134.799 460.566 134.521 460.834C134.29 461.058 134.077 461.278 133.849 461.519C133.632 461.722 133.436 461.939 133.219 462.142C133.005 462.362 132.774 462.585 132.561 462.806C132.312 463.032 132.066 463.277 131.821 463.521C131.532 463.827 131.241 464.116 130.949 464.405C130.675 464.691 130.38 464.962 130.106 465.248C129.785 465.579 129.462 465.891 129.141 466.222C128.743 466.621 128.344 467.02 127.946 467.419C127.622 467.732 127.316 468.042 126.992 468.355C126.672 468.685 126.334 469.019 125.996 469.352C125.644 469.707 125.277 470.082 124.907 470.44C124.555 470.794 124.185 471.151 123.819 471.527C123.513 471.836 123.189 472.149 122.869 472.48C122.531 472.813 122.193 473.147 121.84 473.501C121.595 473.746 121.349 473.99 121.104 474.234C120.795 474.526 120.506 474.833 120.214 475.122L119.677 475.854Z" fill="#120002" stroke="#120002" stroke-width="3.84647" stroke-linejoin="round"/>
<path d="M146.485 461.286C136.123 479.48 133.117 481.587 127.916 478.545C125.845 477.344 121.288 475.145 124.209 471.384L120.518 475.394L135.287 482.933C141.502 475.67 142.431 471.039 146.485 461.286Z" fill="#FFFAFA" stroke="#120002" stroke-width="2.52466" stroke-linejoin="round"/>
<path d="M17.8789 355C19.1966 345.776 20.1849 337.151 20.8438 329.125C21.5026 321.039 21.832 313.462 21.832 306.395C21.832 298.249 21.4727 290.312 20.7539 282.586C20.0951 274.859 19.3164 267.372 18.418 260.125L17.8789 257.07C21.5326 256.651 25.1562 255.812 28.75 254.555C32.4036 253.237 36.3268 251.41 40.5195 249.074C39.1419 257.999 38.0938 266.115 37.375 273.422C36.7161 280.669 36.3867 287.228 36.3867 293.098L36.4766 297.141C37.1354 310.677 37.6745 321.189 38.0938 328.676C38.5729 336.163 38.9622 340.745 39.2617 342.422L43.4844 344.488C48.1562 346.165 52.6784 347.004 57.0508 347.004C67.293 347.004 75.9779 342.721 83.1055 334.156C85.9805 330.083 88.4062 326.22 90.3828 322.566C92.3594 318.913 93.9466 315.289 95.1445 311.695C96.4023 308.042 97.2708 304.358 97.75 300.645C98.2891 296.871 98.5586 292.828 98.5586 288.516C98.5586 283.844 98.1992 279.591 97.4805 275.758C96.8216 271.865 95.7734 268.271 94.3359 264.977C92.8984 261.682 91.0716 258.628 88.8555 255.812C86.6992 252.938 84.0938 250.182 81.0391 247.547C77.3255 244.312 72.8034 241.677 67.4727 239.641C62.2018 237.604 56.1823 236.586 49.4141 236.586C46.2995 236.586 42.9753 236.975 39.4414 237.754C35.9674 238.473 32.4336 239.551 28.8398 240.988C25.2461 242.366 21.6823 244.043 18.1484 246.02C14.6146 247.996 11.2604 250.212 8.08594 252.668L14.1055 229.129L28.6602 223.379C33.1523 222.061 37.3151 221.043 41.1484 220.324C44.9818 219.546 48.4857 219.156 51.6602 219.156C54.2357 219.156 57.0508 219.396 60.1055 219.875C63.1602 220.294 66.4245 221.103 69.8984 222.301C73.4323 223.499 77.1159 225.176 80.9492 227.332C84.7826 229.488 88.7656 232.273 92.8984 235.688C95.6536 237.964 98.2591 240.839 100.715 244.312C103.23 247.786 105.417 251.77 107.273 256.262C109.19 260.754 110.688 265.725 111.766 271.176C112.904 276.566 113.473 282.376 113.473 288.605C113.473 295.134 112.784 301.214 111.406 306.844C110.089 312.414 108.352 317.505 106.195 322.117C104.039 326.729 101.553 330.802 98.7383 334.336C95.9831 337.87 93.168 340.805 90.293 343.141C85.5013 347.034 80.5898 349.969 75.5586 351.945C70.5872 353.922 65.3763 354.94 59.9258 355L40.5195 346.734C37.4648 347.094 34.7695 347.603 32.4336 348.262C30.1576 348.861 28.1211 349.549 26.3242 350.328C24.5273 351.107 22.9401 351.915 21.5625 352.754C20.2448 353.533 19.0169 354.281 17.8789 355Z" fill="#FFFAFA"/>
<path d="M227.492 159C230.487 148.997 234.53 126.836 239.621 92.5156C242.137 75.5651 244.173 59.7526 245.73 45.0781C242.676 39.3281 239.831 34.7461 237.195 31.332C240.789 30.9128 244.443 30.0742 248.156 28.8164C253.607 26.9596 257.5 25.1029 259.836 23.2461V23.4258L260.016 23.2461L259.926 23.4258C261.723 30.7331 268.251 52.2656 279.512 88.0234C287.658 113.779 293.318 128.543 296.492 132.316C299.786 127.585 306.195 112.311 315.719 86.4961C324.703 62.1185 330.273 45.7969 332.43 37.5312C332.13 36.6927 331.561 35.4948 330.723 33.9375L329.195 31.0625C336.443 30.224 343.78 27.6784 351.207 23.4258L351.836 23.0664V23.1562V23.2461C351.836 42.4727 353.543 63.7656 356.957 87.125C361.09 115.276 365.462 135.401 370.074 147.5C370.853 149.536 371.392 150.615 371.691 150.734C367.618 151.214 363.965 152.052 360.73 153.25C355.52 155.167 351.626 157.083 349.051 159C349.171 157.862 349.23 156.454 349.23 154.777C349.111 143.457 347.014 121.385 342.941 88.5625C341.264 74.9661 339.408 63.556 337.371 54.332L323.984 87.0352C314.581 110.874 308.741 130.999 306.465 147.41C306.225 149.147 306.076 150.046 306.016 150.105L306.105 151.004C298.858 151.842 291.521 154.388 284.094 158.641L283.465 159C281.548 140.911 275.469 118.151 265.227 90.7188C260.375 77.7214 255.883 66.6706 251.75 57.5664C250.073 67.569 248.306 79.3385 246.449 92.875C243.574 113.479 241.777 132.167 241.059 148.938L240.969 151.004C236.417 151.902 232.044 154.448 227.852 158.641L227.492 159Z" fill="#FFFAFA"/>
<path d="M542.332 355C543.65 346.076 544.608 336.642 545.207 326.699C545.866 316.697 546.195 306.035 546.195 294.715C546.195 279.441 545.896 266.564 545.297 256.082C544.698 245.6 543.979 237.514 543.141 231.824C535.833 232.303 528.975 233.382 522.566 235.059C516.158 236.736 510.138 239.012 504.508 241.887C505.706 239.611 506.904 236.586 508.102 232.812C509.24 228.979 510.048 224.457 510.527 219.246L512.863 219.965C519.931 222.181 535.803 223.289 560.48 223.289C576.892 223.289 591.267 221.941 603.605 219.246C601.868 223.319 600.521 227.182 599.562 230.836C598.664 234.43 598.065 238.113 597.766 241.887L595.879 240.629C588.572 235.777 577.97 232.872 564.074 231.914C563.056 239.641 562.277 247.727 561.738 256.172C561.199 264.557 560.93 273.901 560.93 284.203C560.99 298.638 561.259 310.767 561.738 320.59C562.217 330.413 563.056 338.049 564.254 343.5L564.973 346.734C562.217 347.034 559.672 347.483 557.336 348.082C555 348.681 552.874 349.4 550.957 350.238C549.1 351.077 547.453 351.915 546.016 352.754C544.578 353.533 543.35 354.281 542.332 355Z" fill="#FFFAFA"/>
</g>
<defs>
<clipPath id="clip0_9_80">
<rect width="600" height="600" fill="white"/>
</clipPath>
</defs>
</svg>
